<svg width="105" height="32" viewBox="0 0 105 32" fill="none" xmlns="http://www.w3.org/2000/svg">
<path d="M21.6204 30.2238V24.4731L18.5536 25.3594L21.6204 30.2238Z" fill="url(#paint0_linear_2786_6196)"/>
<path d="M10.4174 20.1932L0.783813 32.0002C9.62287 31.2793 14.9727 25.259 14.9727 25.259L12.242 18.5825L10.4192 20.1914L10.4174 20.1932Z" fill="url(#paint1_linear_2786_6196)"/>
<path d="M32.0737 9.89068C32.0737 8.53345 31.8149 7.36858 31.4913 6.46436C30.2258 2.92298 27.6605 1.37341 27.2956 1.13971C26.4165 0.618392 25.426 0.258862 24.3708 0.0952756C24.0544 0.0323577 23.729 0 23.3947 0C22.6882 0 22.041 0.0737037 21.446 0.303803C21.1027 0.436829 20.7755 0.639964 20.4843 0.853885C19.5171 1.56216 18.8898 2.81872 18.87 3.94045C18.87 3.94045 17.4642 4.52649 17.6656 6.08865C18.1365 5.87473 18.6597 5.75608 19.2097 5.75608C21.2806 5.75608 22.9597 7.43509 22.9597 9.50598C22.9597 9.55991 22.9579 9.61205 22.9561 9.66597C22.9561 9.67676 22.9561 9.68755 22.9561 9.69833C22.9561 9.69833 22.9561 9.70013 22.9561 9.70193C22.9561 9.74867 22.9561 9.7972 22.9489 9.84394C22.9309 9.97157 22.8967 10.0902 22.832 10.3491C22.823 10.3545 14.8163 12.677 6.58484 24.982L9.96802 24.8957C9.96802 24.8957 9.77387 26.1235 9.77387 26.2529C9.9033 26.1882 23.4792 30.197 30.3965 17.3312C32.2715 13.3871 32.0773 9.89607 32.0773 9.89607L32.0737 9.89068Z" fill="url(#paint2_linear_2786_6196)"/>
<path d="M32.0737 9.89047C22.2046 9.91743 13.8437 15.58 9.96441 24.8883C9.89969 25.1471 9.77026 26.2455 9.77026 26.2455C21.73 28.7676 28.065 22.0426 30.3929 17.3238C32.2679 13.3797 32.0737 9.88867 32.0737 9.88867V9.89047Z" fill="url(#paint3_linear_2786_6196)"/>
<path d="M19.0227 30.772H24.0489C23.4449 30.0601 22.5425 29.6089 21.5358 29.6089C20.5291 29.6089 19.6285 30.0601 19.0227 30.772Z" fill="url(#paint4_linear_2786_6196)"/>
<path d="M27.3117 13.4015C26.7616 11.0861 25.3577 9.84033 25.3577 9.84033C8.59098 12.5853 0 24.8327 0 24.8327C0 24.8327 11.7998 27.0277 22.4419 22.6648C22.512 22.636 22.5821 22.6091 22.654 22.5821C25.6309 21.3507 27.6695 18.3594 27.5292 14.9529C27.5077 14.419 27.434 13.9012 27.3117 13.4015Z" fill="url(#paint5_linear_2786_6196)"/>
<path opacity="0.25" d="M27.5293 14.9529C27.5077 14.419 27.434 13.9012 27.3118 13.4015C26.7617 11.0861 25.3577 9.84033 25.3577 9.84033C24.8184 9.92842 24.2881 10.0273 23.765 10.1333C24.2054 10.6277 25.0395 11.7387 25.435 13.3997C25.5573 13.8994 25.631 14.4172 25.6525 14.9511C25.7928 18.3576 23.7542 21.3489 20.7773 22.5803C20.7072 22.6091 20.6353 22.636 20.5652 22.663C15.6396 24.6817 10.466 25.2965 6.32959 25.3738C10.7033 25.4547 16.7398 24.9999 22.4437 22.663C22.5138 22.6342 22.584 22.6073 22.6559 22.5803C25.6328 21.3489 27.6713 18.3576 27.5311 14.9511L27.5293 14.9529Z" fill="#F7F5F9"/>
<path d="M1.14511 23.4002C7.34701 23.3067 15.6504 22.3234 19.0803 18.5339C21.8217 15.5049 21.5359 12.8749 20.6982 10.8921C10.2035 13.9265 3.64025 20.4951 1.14331 23.4002H1.14511Z" fill="url(#paint6_linear_2786_6196)"/>
<path opacity="0.25" d="M17.0058 18.5986C13.9876 21.9351 6.98571 23.1269 1.14514 23.3984C7.32547 23.2887 15.6953 22.2748 19.0821 18.5339C21.8235 15.5049 21.5377 12.8749 20.7 10.8921C20.0744 11.0737 19.4614 11.266 18.8628 11.4709C19.5729 13.4358 19.5585 15.7763 17.0058 18.5986Z" fill="#F7F5F9"/>
<path opacity="0.1" d="M14.4513 13.2791C4.87703 17.8811 0 24.8327 0 24.8327C0 24.8327 1.29611 25.0735 3.41554 25.2371C3.43711 25.2371 3.46048 25.2371 3.48205 25.2389C3.22139 24.8614 3.00747 23.9985 3.43172 23.0692C5.06039 19.5152 12.3822 14.613 14.4513 13.2773V13.2791Z" fill="url(#paint7_linear_2786_6196)"/>
<path opacity="0.27" d="M22.5533 3.81459C23.15 3.81459 23.6337 3.33088 23.6337 2.7342C23.6337 2.13752 23.15 1.65381 22.5533 1.65381C21.9566 1.65381 21.4729 2.13752 21.4729 2.7342C21.4729 3.33088 21.9566 3.81459 22.5533 3.81459Z" fill="url(#paint8_radial_2786_6196)" stroke="url(#paint9_radial_2786_6196)" stroke-miterlimit="10"/>
<path d="M22.5533 3.76585C23.1232 3.76585 23.5852 3.30388 23.5852 2.734C23.5852 2.16412 23.1232 1.70215 22.5533 1.70215C21.9835 1.70215 21.5215 2.16412 21.5215 2.734C21.5215 3.30388 21.9835 3.76585 22.5533 3.76585Z" fill="white"/>
<path d="M22.4347 3.50925C22.7544 3.50925 23.0135 3.25009 23.0135 2.93041C23.0135 2.61072 22.7544 2.35156 22.4347 2.35156C22.115 2.35156 21.8558 2.61072 21.8558 2.93041C21.8558 3.25009 22.115 3.50925 22.4347 3.50925Z" fill="url(#paint10_radial_2786_6196)"/>
<path opacity="0.97" d="M22.1722 2.73438C22.3035 2.73438 22.4095 2.83864 22.4095 2.96987C22.4095 3.1011 22.3035 3.20536 22.1722 3.20536C22.041 3.20536 21.9349 3.1011 21.9349 2.96987C21.9349 2.83864 22.041 2.73438 22.1722 2.73438Z" fill="url(#paint11_linear_2786_6196)"/>
<path d="M38.2487 25.6454V11.71H41.0278V17.1227H45.0258V11.71H47.8643V25.6436H45.0258V19.4291H41.0278V25.6436H38.2487V25.6454Z" fill="#232323"/>
<path d="M50.8484 20.5524C50.8484 18.9345 51.269 17.6348 52.1085 16.6533C52.948 15.6718 54.0608 15.1792 55.4468 15.1792C56.8328 15.1792 58.0588 15.6933 58.9252 16.7234C59.7108 17.6456 60.1045 18.8949 60.1045 20.4733C60.1045 22.1577 59.6821 23.4772 58.8354 24.4335C57.9887 25.3899 56.8597 25.8662 55.4468 25.8662C54.0338 25.8662 52.948 25.3845 52.1085 24.4227C51.269 23.461 50.8484 22.1703 50.8484 20.5542V20.5524ZM56.6458 17.7049C56.3654 17.3436 55.9789 17.1638 55.4863 17.1638C54.8068 17.1638 54.3466 17.5108 54.1075 18.2064C53.9206 18.7547 53.8271 19.5169 53.8271 20.4913C53.8271 21.6813 53.9439 22.5496 54.1776 23.0979C54.4113 23.6461 54.8607 23.9194 55.5277 23.9194C56.6332 23.9194 57.1869 22.7635 57.1869 20.4517C57.1869 19.0891 57.0071 18.1723 56.6476 17.7049H56.6458Z" fill="#232323"/>
<path d="M63.0904 18.4871C63.0904 17.191 62.9627 16.3156 62.7111 15.8608L65.1307 15.1992C65.2781 15.4401 65.3967 15.7871 65.4902 16.2419C66.2093 15.5462 67.0434 15.1992 67.989 15.1992C68.8285 15.1992 69.5224 15.4797 70.0688 16.0405C70.1749 16.1484 70.3079 16.3138 70.4679 16.5421C71.347 15.6468 72.3141 15.1992 73.3675 15.1992C74.2736 15.1992 74.98 15.4473 75.487 15.9416C75.9274 16.3695 76.1467 17.1712 76.1467 18.3469V25.6454H73.5473V18.8682C73.5473 18.3469 73.5203 18.0125 73.4682 17.8651C73.3621 17.5577 73.1087 17.4049 72.7078 17.4049C72.1613 17.4049 71.5681 17.6926 70.9281 18.2678V25.6454H68.3898V18.9689C68.3898 18.4206 68.3557 18.0593 68.2892 17.8867C68.1687 17.5523 67.8955 17.3852 67.4694 17.3852C66.8834 17.3852 66.2956 17.6458 65.7095 18.1671V25.6454H63.0904V18.4871Z" fill="#232323"/>
<path d="M78.8379 12.553C78.8379 12.0982 79.0015 11.7081 79.3269 11.3809C79.654 11.0537 80.0495 10.8901 80.5169 10.8901C80.9843 10.8901 81.3528 11.0501 81.6674 11.3719C81.9802 11.6919 82.1366 12.0874 82.1366 12.5548C82.1366 13.0222 81.9766 13.3997 81.6566 13.7268C81.3366 14.054 80.9429 14.2176 80.4773 14.2176C80.0118 14.2176 79.6378 14.054 79.3179 13.7268C78.9979 13.3997 78.8379 13.0078 78.8379 12.5548V12.553ZM79.1381 25.6453V15.5604L81.8166 15.1398V25.6453H79.1381Z" fill="#232323"/>
<path d="M84.7934 18.2067C84.7934 17.2845 84.6729 16.4827 84.4338 15.8014L86.8121 15.1201C87.0656 15.5605 87.1914 15.9884 87.1914 16.4036C87.4305 16.2293 87.8242 15.9758 88.3707 15.6414C88.9172 15.3484 89.5302 15.201 90.2097 15.201C90.7831 15.201 91.2955 15.3376 91.7485 15.6127C92.2015 15.8859 92.5089 16.2436 92.6689 16.6859C92.8019 17.0472 92.8684 17.5344 92.8684 18.1492V25.6472H90.2295V18.9707C90.2295 18.4637 90.1899 18.115 90.109 17.9281C89.9886 17.6207 89.7297 17.4661 89.3288 17.4661C88.7698 17.4661 88.1496 17.7735 87.4701 18.3882V25.6454H84.7916V18.2067H84.7934Z" fill="#232323"/>
<path d="M104.758 16.0764C104.758 15.8481 104.807 15.5227 104.947 15.1848H102.596C102.596 15.1848 102.448 15.4382 102.418 15.8697C102.418 15.8697 101.797 15.0176 100.37 15.0176C98.9428 15.0176 96.8431 15.6072 96.1492 17.9765C95.5291 20.0977 96.0648 22.5354 96.0648 22.5354C96.0648 22.5354 96.7047 25.4727 99.6025 25.6417C100.244 25.6795 101.262 25.6309 102.08 24.9568L102.146 24.8417C102.146 24.8417 102.211 25.879 102.146 26.3374C102.103 26.6412 101.954 27.4322 100.811 27.6317C99.6672 27.8312 97.83 27.4627 96.8108 26.9899L96.3488 29.1471C96.3488 29.1471 98.2705 30.2203 101.754 29.7152C105.24 29.21 104.708 25.6093 104.756 25.2732C104.765 24.2629 104.756 16.08 104.756 16.08L104.758 16.0764ZM102.148 22.7583C101.826 23.0531 101.113 23.7973 100.007 23.4324C98.9014 23.0675 98.7756 21.6635 98.79 20.0636C98.8044 18.4637 99.0974 17.6493 100.203 17.2844C101.308 16.9195 102.148 17.9442 102.148 17.9442V22.7583Z" fill="#232323"/>
<defs>
<linearGradient id="paint0_linear_2786_6196" x1="20.0377" y1="24.4423" x2="22.395" y2="33.4333" gradientUnits="userSpaceOnUse">
<stop stop-color="#88308C"/>
<stop offset="0.37" stop-color="#2E3191"/>
<stop offset="0.97" stop-color="#00ADEE"/>
</linearGradient>
<linearGradient id="paint1_linear_2786_6196" x1="0.783813" y1="25.2914" x2="14.9727" y2="25.2914" gradientUnits="userSpaceOnUse">
<stop stop-color="#88308C"/>
<stop offset="0.37" stop-color="#2E3191"/>
<stop offset="0.97" stop-color="#00ADEE"/>
</linearGradient>
<linearGradient id="paint2_linear_2786_6196" x1="19.1486" y1="19.2259" x2="25.7208" y2="-5.79922" gradientUnits="userSpaceOnUse">
<stop stop-color="#88308C"/>
<stop offset="0.43" stop-color="#2E3191"/>
<stop offset="0.97" stop-color="#00ADEE"/>
</linearGradient>
<linearGradient id="paint3_linear_2786_6196" x1="30.6266" y1="10.4603" x2="9.81341" y2="30.0511" gradientUnits="userSpaceOnUse">
<stop stop-color="#88308C"/>
<stop offset="0.37" stop-color="#2E3191"/>
<stop offset="0.97" stop-color="#00ADEE"/>
</linearGradient>
<linearGradient id="paint4_linear_2786_6196" x1="19.0227" y1="30.1895" x2="24.0489" y2="30.1895" gradientUnits="userSpaceOnUse">
<stop stop-color="#88308C"/>
<stop offset="0.37" stop-color="#2E3191"/>
</linearGradient>
<linearGradient id="paint5_linear_2786_6196" x1="-0.666189" y1="24.1741" x2="24.3882" y2="15.8683" gradientUnits="userSpaceOnUse">
<stop stop-color="#88308C"/>
<stop offset="0.37" stop-color="#2E3191"/>
<stop offset="0.97" stop-color="#00ADEE"/>
</linearGradient>
<linearGradient id="paint6_linear_2786_6196" x1="1.24398" y1="21.0237" x2="19.296" y2="15.6577" gradientUnits="userSpaceOnUse">
<stop stop-color="#88308C"/>
<stop offset="0.37" stop-color="#2E3191"/>
<stop offset="0.97" stop-color="#00ADEE"/>
</linearGradient>
<linearGradient id="paint7_linear_2786_6196" x1="25.7927" y1="18.6433" x2="8.40043" y2="19.2797" gradientUnits="userSpaceOnUse">
<stop stop-color="#88308C"/>
<stop offset="0.37" stop-color="#2E3191"/>
<stop offset="0.97" stop-color="#00ADEE"/>
</linearGradient>
<radialGradient id="paint8_radial_2786_6196" cx="0" cy="0" r="1" gradientUnits="userSpaceOnUse" gradientTransform="translate(22.5533 2.7342) scale(1.08039)">
<stop offset="0.05" stop-color="#262262"/>
<stop offset="0.18" stop-color="#262262"/>
<stop offset="0.29" stop-color="#2E3191"/>
</radialGradient>
<radialGradient id="paint9_radial_2786_6196" cx="0" cy="0" r="1" gradientUnits="userSpaceOnUse" gradientTransform="translate(22.5533 2.7342) scale(1.17027)">
<stop stop-color="#F1F2F2"/>
<stop offset="0.95" stop-color="#F1F2F2" stop-opacity="0"/>
</radialGradient>
<radialGradient id="paint10_radial_2786_6196" cx="0" cy="0" r="1" gradientUnits="userSpaceOnUse" gradientTransform="translate(22.4347 2.93041) scale(1.70777)">
<stop offset="0.05" stop-color="#262262"/>
<stop offset="0.48" stop-color="#2E3191"/>
</radialGradient>
<linearGradient id="paint11_linear_2786_6196" x1="-62.946" y1="86.6746" x2="-62.4518" y2="86.4604" gradientUnits="userSpaceOnUse">
<stop stop-color="#F1F2F2"/>
<stop offset="1" stop-color="#F1F2F2" stop-opacity="0.77"/>
</linearGradient>
</defs>
</svg>
