<?xml version="1.0" encoding="UTF-8"?>
<svg version="1.1" xmlns="http://www.w3.org/2000/svg" width="826" height="826">
<path d="M0 0 C272.58 0 545.16 0 826 0 C826 272.58 826 545.16 826 826 C553.42 826 280.84 826 0 826 C0 553.42 0 280.84 0 0 Z " fill="#000000" transform="translate(0,0)"/>
<path d="M0 0 C0.89242086 0.00213312 1.78484173 0.00426624 2.70430565 0.006464 C12.8233288 0.08831087 22.87542526 0.82437817 32.95947266 1.61474609 C34.96955776 1.76737879 36.97968032 1.9195189 38.98983765 2.07119751 C43.15995282 2.38753085 47.32962064 2.70908328 51.49902344 3.03466797 C56.81929012 3.44978595 62.14041031 3.85250061 67.46190834 4.25148582 C71.59568635 4.56262301 75.72898548 4.87978063 79.86216354 5.19878006 C81.82427183 5.34959718 83.78651289 5.49869799 85.74888992 5.64597702 C88.48967492 5.85268333 91.22972215 6.06740104 93.96972656 6.28417969 C94.76262085 6.34244431 95.55551514 6.40070892 96.37243652 6.46073914 C113.66304943 7.86523864 113.66304943 7.86523864 119.23291016 14.15380859 C120.51147461 17.46435547 120.51147461 17.46435547 121.28369141 21.37255859 C121.51008049 22.46449524 121.51008049 22.46449524 121.74104309 23.57849121 C122.07526428 25.20549626 122.39848413 26.83478804 122.71246338 28.46582031 C123.26950956 31.34283614 123.86223008 34.21096376 124.4609375 37.07958984 C125.58339606 42.48285648 126.67396303 47.89194859 127.75219727 53.30419922 C128.42502941 56.67696392 129.10510569 60.04821646 129.78564453 63.41943359 C130.22032418 65.5912216 130.65458412 67.76309367 131.08837891 69.93505859 C131.38992134 71.4259198 131.38992134 71.4259198 131.69755554 72.94689941 C134.82392173 88.73538081 134.82392173 88.73538081 132.98291016 93.15380859 C129.15786781 97.88037607 124.02025858 101.46552188 119.23291016 105.15380859 C118.58531738 105.65364258 117.93772461 106.15347656 117.27050781 106.66845703 C112.94802747 109.99781176 108.60892759 113.30496814 104.26513672 116.60644531 C101.41278664 118.77826112 98.57253515 120.9653758 95.73291016 123.15380859 C90.74090235 126.9976546 85.73894109 130.82824637 80.73291016 134.65380859 C73.55507736 140.13940422 66.39045955 145.64177621 59.23291016 151.15380859 C57.06646364 152.82076152 54.89968519 154.48728273 52.73291016 156.15380859 C51.64957078 156.98713407 50.56623744 157.82046739 49.48291016 158.65380859 C47.31624349 160.32047526 45.14957682 161.98714193 42.98291016 163.65380859 C42.44633789 164.06663086 41.90976563 164.47945312 41.35693359 164.90478516 C40.27714599 165.73524117 39.19706929 166.56532142 38.11669922 167.39501953 C35.35158492 169.51933486 32.59231172 171.65061266 29.84228516 173.79443359 C26.65863719 176.2737754 23.44896172 178.71664452 20.23291016 181.15380859 C19.40791016 181.80091797 18.58291016 182.44802734 17.73291016 183.11474609 C13.30164681 186.39203461 9.84673803 188.08200134 4.24462891 187.68115234 C0.1997877 186.62085416 -1.79194547 183.77139703 -3.86183167 180.33782959 C-4.97909295 177.64233104 -5.14721832 175.37312604 -5.3137207 172.45947266 C-5.38409042 171.30600342 -5.45446014 170.15253418 -5.52696228 168.96411133 C-5.59460281 167.71186768 -5.66224335 166.45962402 -5.73193359 165.16943359 C-5.85104665 163.16858728 -5.97016462 161.16774125 -6.08950138 159.16690826 C-6.21470388 157.04149598 -6.33572178 154.9158819 -6.45556641 152.79016113 C-6.82966614 146.16467257 -7.23177369 139.54085317 -7.63086319 132.91683197 C-7.76314227 130.71699578 -7.89444168 128.51710272 -8.02560425 126.31719971 C-8.68230573 115.33891228 -9.42168515 104.3692134 -10.26708984 93.40380859 C-10.35319519 92.27647812 -10.35319519 92.27647812 -10.44104004 91.12637329 C-11.12700972 82.15783504 -11.84357879 73.19175221 -12.56015015 64.22561646 C-12.93587229 59.50990183 -13.30722306 54.79384703 -13.67822266 50.07775879 C-13.94659019 46.69222645 -14.22187211 43.30730621 -14.49755859 39.92236328 C-17.05943041 7.8983568 -17.05943041 7.8983568 -13.39208984 3.27880859 C-8.97692081 -0.29537586 -5.49464453 -0.01856218 0 0 Z " fill="#C3F34D" transform="translate(130.76708984375,393.84619140625)"/>
<path d="M0 0 C0.89271008 0.00206231 1.78542017 0.00412462 2.70518208 0.00624943 C12.76143856 0.08828332 22.74516388 0.84269622 32.7644043 1.65209961 C34.75445219 1.80727738 36.74455048 1.96180994 38.73469543 2.11573792 C43.9084498 2.51779391 49.08141285 2.92926515 54.25427246 3.34265137 C58.47705447 3.67844121 62.70036467 4.00728138 66.92371655 4.33581448 C71.99579919 4.73053425 77.06763271 5.12840514 82.1394043 5.52709961 C83.09275351 5.60194517 84.04610271 5.67679073 85.02834129 5.75390434 C87.74022206 5.96755791 90.45192354 6.18335023 93.16357422 6.39990234 C93.95071304 6.46176224 94.73785187 6.52362213 95.54884338 6.58735657 C97.7741023 6.76639076 99.99779934 6.95788297 102.22143555 7.15600586 C103.02785303 7.22462389 103.83427052 7.29324192 104.66512489 7.36393929 C105.46091642 7.43982214 106.25670795 7.51570499 107.07661438 7.59388733 C107.79103856 7.65957444 108.50546274 7.72526155 109.24153614 7.79293919 C113.52321724 8.57809812 116.35709884 10.92074141 118.79614258 14.40649414 C120.36771508 17.43819156 121.02082495 20.04540608 121.65112305 23.39819336 C121.88661865 24.61829102 122.12211426 25.83838867 122.36474609 27.09545898 C122.54376968 28.05850952 122.54376968 28.05850952 122.72640991 29.04101562 C123.22825119 31.73990769 123.7511498 34.43457707 124.27342224 37.12957764 C124.53855303 38.49775152 124.80268048 39.86612022 125.06581116 41.23468018 C126.25414082 47.39611506 127.55881592 53.52830029 128.90893555 59.65600586 C129.11268799 60.58711182 129.31644043 61.51821777 129.52636719 62.47753906 C130.4040263 66.47881258 131.29270265 70.47730418 132.19799805 74.47241211 C132.47385742 75.70862305 132.7497168 76.94483398 133.03393555 78.21850586 C133.26725586 79.24073242 133.50057617 80.26295898 133.7409668 81.31616211 C134.46983735 85.6242019 134.77620452 88.96721521 132.90893555 92.96850586 C129.23519409 97.88371857 124.04210677 101.44204648 119.22143555 105.15600586 C118.57384277 105.65583984 117.92625 106.15567383 117.2590332 106.6706543 C112.94235626 109.995539 108.60918025 113.29838934 104.27124023 116.59545898 C101.33009152 118.83459936 98.39979079 121.08767433 95.47143555 123.34350586 C94.42987305 124.14530273 93.38831055 124.94709961 92.31518555 125.77319336 C90.7837793 126.95268555 90.7837793 126.95268555 89.22143555 128.15600586 C81.33520284 134.22999822 73.43701792 140.28788603 65.52807617 146.33227539 C59.08196461 151.25985977 52.64990813 156.2054359 46.22143555 161.15600586 C45.14337172 161.98551245 44.06524598 162.81493859 42.98706055 163.64428711 C42.44823242 164.05880127 41.9094043 164.47331543 41.35424805 164.90039062 C40.27118147 165.73325716 39.18785073 166.56578031 38.10424805 167.39794922 C35.33947123 169.52203575 32.58051615 171.65306013 29.83081055 173.79663086 C26.64716258 176.27597267 23.43748711 178.71884178 20.22143555 181.15600586 C19.39643555 181.80311523 18.57143555 182.45022461 17.72143555 183.11694336 C13.2901722 186.39423188 9.83526342 188.0841986 4.2331543 187.68334961 C0.18210286 186.6214235 -1.81886802 183.76591916 -3.87528992 180.31622314 C-4.95318741 177.73838806 -5.13969705 175.63217259 -5.29345703 172.8425293 C-5.35744186 171.76567871 -5.4214267 170.68882812 -5.48735046 169.5793457 C-5.54864639 168.4032373 -5.60994232 167.22712891 -5.6730957 166.01538086 C-5.74546951 164.77385254 -5.81784332 163.53232422 -5.89241028 162.25317383 C-6.04951514 159.55453701 -6.20372347 156.85590649 -6.35333252 154.15686035 C-6.75649412 146.90517891 -7.19474306 139.65557403 -7.6340332 132.40600586 C-7.67915543 131.65782341 -7.72427765 130.90964096 -7.77076721 130.13878632 C-9.01891902 109.52220742 -10.67632772 88.93967964 -12.33169556 68.35256958 C-12.43017792 67.1275473 -12.52866028 65.90252502 -12.63012695 64.64038086 C-12.72667572 63.440737 -12.82322449 62.24109314 -12.92269897 61.00509644 C-13.61963441 52.2898247 -14.27410627 43.57199904 -14.8996582 34.85131836 C-14.98224884 33.70475769 -15.06483948 32.55819702 -15.14993286 31.37689209 C-16.83015969 7.6476405 -16.83015969 7.6476405 -13.40356445 3.28100586 C-8.98632493 -0.29485471 -5.49737355 -0.01769563 0 0 Z " fill="#C3F44D" transform="translate(576.778564453125,229.843994140625)"/>
<path d="M0 0 C0.89271008 0.00206231 1.78542017 0.00412462 2.70518208 0.00624943 C12.76143856 0.08828332 22.74516388 0.84269622 32.7644043 1.65209961 C34.75445219 1.80727738 36.74455048 1.96180994 38.73469543 2.11573792 C43.9084498 2.51779391 49.08141285 2.92926515 54.25427246 3.34265137 C58.47705447 3.67844121 62.70036467 4.00728138 66.92371655 4.33581448 C71.99579919 4.73053425 77.06763271 5.12840514 82.1394043 5.52709961 C83.09275351 5.60194517 84.04610271 5.67679073 85.02834129 5.75390434 C87.74022206 5.96755791 90.45192354 6.18335023 93.16357422 6.39990234 C93.95071304 6.46176224 94.73785187 6.52362213 95.54884338 6.58735657 C97.7741023 6.76639076 99.99779934 6.95788297 102.22143555 7.15600586 C103.02785303 7.22462389 103.83427052 7.29324192 104.66512489 7.36393929 C105.46091642 7.43982214 106.25670795 7.51570499 107.07661438 7.59388733 C107.79103856 7.65957444 108.50546274 7.72526155 109.24153614 7.79293919 C113.52321724 8.57809812 116.35709884 10.92074141 118.79614258 14.40649414 C120.36771508 17.43819156 121.02082495 20.04540608 121.65112305 23.39819336 C121.88661865 24.61829102 122.12211426 25.83838867 122.36474609 27.09545898 C122.54376968 28.05850952 122.54376968 28.05850952 122.72640991 29.04101562 C123.22825119 31.73990769 123.7511498 34.43457707 124.27342224 37.12957764 C124.53855303 38.49775152 124.80268048 39.86612022 125.06581116 41.23468018 C126.25414082 47.39611506 127.55881592 53.52830029 128.90893555 59.65600586 C129.11268799 60.58711182 129.31644043 61.51821777 129.52636719 62.47753906 C130.4040263 66.47881258 131.29270265 70.47730418 132.19799805 74.47241211 C132.47385742 75.70862305 132.7497168 76.94483398 133.03393555 78.21850586 C133.26725586 79.24073242 133.50057617 80.26295898 133.7409668 81.31616211 C134.46983735 85.6242019 134.77620452 88.96721521 132.90893555 92.96850586 C129.23519409 97.88371857 124.04210677 101.44204648 119.22143555 105.15600586 C118.57384277 105.65583984 117.92625 106.15567383 117.2590332 106.6706543 C112.94235626 109.995539 108.60918025 113.29838934 104.27124023 116.59545898 C101.33009152 118.83459936 98.39979079 121.08767433 95.47143555 123.34350586 C94.42987305 124.14530273 93.38831055 124.94709961 92.31518555 125.77319336 C90.7837793 126.95268555 90.7837793 126.95268555 89.22143555 128.15600586 C81.33520284 134.22999822 73.43701792 140.28788603 65.52807617 146.33227539 C59.08196461 151.25985977 52.64990813 156.2054359 46.22143555 161.15600586 C45.14337172 161.98551245 44.06524598 162.81493859 42.98706055 163.64428711 C42.44823242 164.05880127 41.9094043 164.47331543 41.35424805 164.90039062 C40.27118147 165.73325716 39.18785073 166.56578031 38.10424805 167.39794922 C35.33947123 169.52203575 32.58051615 171.65306013 29.83081055 173.79663086 C26.64716258 176.27597267 23.43748711 178.71884178 20.22143555 181.15600586 C19.39643555 181.80311523 18.57143555 182.45022461 17.72143555 183.11694336 C13.2901722 186.39423188 9.83526342 188.0841986 4.2331543 187.68334961 C0.18210286 186.6214235 -1.81886802 183.76591916 -3.87528992 180.31622314 C-4.95318741 177.73838806 -5.13969705 175.63217259 -5.29345703 172.8425293 C-5.35744186 171.76567871 -5.4214267 170.68882812 -5.48735046 169.5793457 C-5.54864639 168.4032373 -5.60994232 167.22712891 -5.6730957 166.01538086 C-5.74546951 164.77385254 -5.81784332 163.53232422 -5.89241028 162.25317383 C-6.04951514 159.55453701 -6.20372347 156.85590649 -6.35333252 154.15686035 C-6.75649412 146.90517891 -7.19474306 139.65557403 -7.6340332 132.40600586 C-7.67915543 131.65782341 -7.72427765 130.90964096 -7.77076721 130.13878632 C-9.01891902 109.52220742 -10.67632772 88.93967964 -12.33169556 68.35256958 C-12.43017792 67.1275473 -12.52866028 65.90252502 -12.63012695 64.64038086 C-12.72667572 63.440737 -12.82322449 62.24109314 -12.92269897 61.00509644 C-13.61963441 52.2898247 -14.27410627 43.57199904 -14.8996582 34.85131836 C-14.98224884 33.70475769 -15.06483948 32.55819702 -15.14993286 31.37689209 C-16.83015969 7.6476405 -16.83015969 7.6476405 -13.40356445 3.28100586 C-8.98632493 -0.29485471 -5.49737355 -0.01769563 0 0 Z " fill="#C3F44D" transform="translate(296.778564453125,229.843994140625)"/>
<path d="M0 0 C0.75126191 0.00213312 1.50252382 0.00426624 2.27655125 0.006464 C12.15820984 0.09978792 21.99540852 0.87480843 31.84545898 1.61474609 C33.92710272 1.76725721 36.00877343 1.91940048 38.09046936 2.07119751 C42.4196723 2.38831241 46.74851603 2.70986099 51.07714844 3.03466797 C56.60272892 3.44892305 62.12906787 3.85185025 67.65572262 4.25148582 C71.94132897 4.56264821 76.22647443 4.87982238 80.51150703 5.19878006 C82.54897053 5.3497199 84.58657124 5.49882003 86.62431145 5.64597702 C89.47317875 5.85260965 92.32132476 6.06737365 95.16943359 6.28417969 C96.40792305 6.37157661 96.40792305 6.37157661 97.6714325 6.46073914 C115.15226412 7.8274268 115.15226412 7.8274268 120.75561523 14.15380859 C122.03417969 17.46435547 122.03417969 17.46435547 122.80639648 21.37255859 C123.03278557 22.46449524 123.03278557 22.46449524 123.26374817 23.57849121 C123.59796936 25.20549626 123.92118921 26.83478804 124.23516846 28.46582031 C124.79221464 31.34283614 125.38493516 34.21096376 125.98364258 37.07958984 C127.10610114 42.48285648 128.19666811 47.89194859 129.27490234 53.30419922 C129.94773449 56.67696392 130.62781077 60.04821646 131.30834961 63.41943359 C131.74302926 65.5912216 132.17728919 67.76309367 132.61108398 69.93505859 C132.91262642 71.4259198 132.91262642 71.4259198 133.22026062 72.94689941 C136.34662681 88.73538081 136.34662681 88.73538081 134.50561523 93.15380859 C130.68057289 97.88037607 125.54296366 101.46552188 120.75561523 105.15380859 C120.10802246 105.65364258 119.46042969 106.15347656 118.79321289 106.66845703 C114.47653595 109.99334174 110.14335994 113.29619208 105.80541992 116.59326172 C102.8642712 118.8324021 99.93397048 121.08547706 97.00561523 123.34130859 C95.96405273 124.14310547 94.92249023 124.94490234 93.84936523 125.77099609 C92.31795898 126.95048828 92.31795898 126.95048828 90.75561523 128.15380859 C82.86648177 134.23003512 74.9655352 140.29034093 67.0534668 146.33666992 C62.7818819 149.60179262 58.5156265 152.87359992 54.25561523 156.15380859 C43.47735474 164.4489082 32.68556571 172.72570899 21.81811523 180.90380859 C21.13773193 181.41733887 20.45734863 181.93086914 19.75634766 182.45996094 C14.79037571 186.18682892 12.16293304 187.56469108 6.01342773 187.50537109 C2.37979628 186.93958073 0.896468 185.00827894 -1.24438477 182.15380859 C-3.15766251 178.95865342 -3.56588224 176.38407638 -3.77514648 172.68164062 C-3.84232376 171.5728656 -3.90950104 170.46409058 -3.97871399 169.32171631 C-4.04318222 168.11388489 -4.10765045 166.90605347 -4.17407227 165.66162109 C-4.28919838 163.71620837 -4.40433183 161.77079607 -4.51976109 159.82540131 C-4.64163793 157.74580745 -4.759379 155.66601507 -4.87600708 153.58612061 C-5.24424606 147.03212637 -5.64073112 140.47981418 -6.0359745 133.9274025 C-6.12574648 132.4377632 -6.21522071 130.94810594 -6.30440331 129.45843124 C-7.18199289 114.80589298 -8.20501456 100.16624645 -9.30688477 85.52880859 C-9.38948547 84.42449493 -9.47208618 83.32018127 -9.55718994 82.18240356 C-10.38892327 71.07998046 -11.25107454 59.98045727 -12.16235352 48.88427734 C-12.23386124 48.00672791 -12.30536896 47.12917847 -12.37904358 46.22503662 C-12.7049492 42.22641174 -13.03587657 38.22842867 -13.38134766 34.23144531 C-13.95361883 27.44568748 -14.38053799 20.67037259 -14.47094727 13.86083984 C-14.48722168 12.66305908 -14.50349609 11.46527832 -14.52026367 10.23120117 C-14.2388078 7.09159825 -13.82707686 5.69572566 -11.86938477 3.27880859 C-7.81809056 -0.00081052 -5.04182049 -0.02049421 0 0 Z " fill="#C3F44D" transform="translate(413.244384765625,395.84619140625)"/>
<path d="M0 0 C2.86064148 -0.33787537 2.86064148 -0.33787537 6.5300293 -0.26733398 C7.52764424 -0.25016531 7.52764424 -0.25016531 8.54541302 -0.2326498 C16.55679076 -0.04640026 24.53689302 0.60893506 32.51953125 1.27734375 C34.15561459 1.40996789 35.79173925 1.54208322 37.42790222 1.67372131 C41.69046489 2.01813446 45.95239338 2.36985625 50.2142334 2.7230835 C53.68237181 3.00928435 57.15092456 3.29025649 60.6195116 3.57096004 C79.20276617 5.07515792 79.20276617 5.07515792 86.30557251 5.68551636 C88.60153589 5.88095745 90.89831377 6.06732357 93.19613647 6.23953247 C94.54863998 6.35021561 94.54863998 6.35021561 95.9284668 6.46313477 C96.6812944 6.52001968 97.43412201 6.5769046 98.20976257 6.63551331 C100 7 100 7 102 9 C101.78998674 13.72949852 99.19392532 17.06825344 96.5625 20.8125 C95.64380767 22.15356249 94.72720361 23.4960575 93.8125 24.83984375 C93.34328125 25.52804199 92.8740625 26.21624023 92.390625 26.92529297 C90.20084648 30.19227644 88.12982923 33.52967038 86.0625 36.875 C81.27154471 44.601922 76.34688021 52.23689982 71.39111328 59.85888672 C69.08877734 63.4024961 66.7947236 66.95145834 64.5 70.5 C61.78792967 74.6932116 59.0748883 78.88576855 56.35546875 83.07421875 C50.59032224 91.9593269 44.88598118 100.88151151 39.20751953 109.82226562 C35.07344042 116.32664112 30.90580552 122.80817355 26.70898438 129.2722168 C23.58104518 134.09171258 20.49298502 138.93492135 17.4375 143.80078125 C16.03985858 145.9390207 14.55665888 147.97541687 13 150 C9.125 149.125 9.125 149.125 8 148 C7.79360253 145.95767138 7.65146545 143.90880865 7.53515625 141.859375 C7.45716797 140.55871094 7.37917969 139.25804687 7.29882812 137.91796875 C7.21958389 136.52867246 7.1408076 135.1393494 7.0625 133.75 C6.56816339 125.09266153 5.97061777 116.47136217 5.09375 107.84375 C4.09567584 97.86277162 3.40547352 87.86718246 2.74609375 77.859375 C2.69269899 77.04914635 2.63930424 76.23891769 2.58429146 75.40413666 C2.25391207 70.3748025 1.92780189 65.34519746 1.60314941 60.31549072 C1.16480966 53.5267159 0.72313944 46.73816311 0.27791023 39.94983673 C0.124908 37.60532222 -0.02549734 35.2606515 -0.17567444 32.91595459 C-0.62933273 25.92167664 -1.1571706 18.96035052 -2 12 C-2.09942429 10.37684072 -2.17260867 8.7511333 -2.1875 7.125 C-2.20167969 6.40570313 -2.21585938 5.68640625 -2.23046875 4.9453125 C-2 3 -2 3 0 0 Z " fill="#010100" transform="translate(575,242)"/>
<path d="M0 0 C2.86064148 -0.33787537 2.86064148 -0.33787537 6.5300293 -0.26733398 C7.52764424 -0.25016531 7.52764424 -0.25016531 8.54541302 -0.2326498 C16.55679076 -0.04640026 24.53689302 0.60893506 32.51953125 1.27734375 C34.15561459 1.40996789 35.79173925 1.54208322 37.42790222 1.67372131 C41.69046489 2.01813446 45.95239338 2.36985625 50.2142334 2.7230835 C53.68237181 3.00928435 57.15092456 3.29025649 60.6195116 3.57096004 C79.20276617 5.07515792 79.20276617 5.07515792 86.30557251 5.68551636 C88.60153589 5.88095745 90.89831377 6.06732357 93.19613647 6.23953247 C94.54863998 6.35021561 94.54863998 6.35021561 95.9284668 6.46313477 C96.6812944 6.52001968 97.43412201 6.5769046 98.20976257 6.63551331 C100 7 100 7 102 9 C101.78998674 13.72949852 99.19392532 17.06825344 96.5625 20.8125 C95.64380767 22.15356249 94.72720361 23.4960575 93.8125 24.83984375 C93.34328125 25.52804199 92.8740625 26.21624023 92.390625 26.92529297 C90.20084648 30.19227644 88.12982923 33.52967038 86.0625 36.875 C81.27154471 44.601922 76.34688021 52.23689982 71.39111328 59.85888672 C69.08877734 63.4024961 66.7947236 66.95145834 64.5 70.5 C61.78792967 74.6932116 59.0748883 78.88576855 56.35546875 83.07421875 C50.59032224 91.9593269 44.88598118 100.88151151 39.20751953 109.82226562 C35.07344042 116.32664112 30.90580552 122.80817355 26.70898438 129.2722168 C23.58104518 134.09171258 20.49298502 138.93492135 17.4375 143.80078125 C16.03985858 145.9390207 14.55665888 147.97541687 13 150 C9.125 149.125 9.125 149.125 8 148 C7.79360253 145.95767138 7.65146545 143.90880865 7.53515625 141.859375 C7.45716797 140.55871094 7.37917969 139.25804687 7.29882812 137.91796875 C7.21958389 136.52867246 7.1408076 135.1393494 7.0625 133.75 C6.56816339 125.09266153 5.97061777 116.47136217 5.09375 107.84375 C4.09567584 97.86277162 3.40547352 87.86718246 2.74609375 77.859375 C2.69269899 77.04914635 2.63930424 76.23891769 2.58429146 75.40413666 C2.25391207 70.3748025 1.92780189 65.34519746 1.60314941 60.31549072 C1.16480966 53.5267159 0.72313944 46.73816311 0.27791023 39.94983673 C0.124908 37.60532222 -0.02549734 35.2606515 -0.17567444 32.91595459 C-0.62933273 25.92167664 -1.1571706 18.96035052 -2 12 C-2.09942429 10.37684072 -2.17260867 8.7511333 -2.1875 7.125 C-2.20167969 6.40570313 -2.21585937 5.68640625 -2.23046875 4.9453125 C-2 3 -2 3 0 0 Z " fill="#010100" transform="translate(295,242)"/>
<path d="M0 0 C2.85171509 -0.33787537 2.85171509 -0.33787537 6.51416016 -0.26733398 C7.51112884 -0.25016531 7.51112884 -0.25016531 8.5282383 -0.2326498 C16.62922584 -0.04445309 24.70052551 0.61217528 32.7734375 1.27734375 C34.43433897 1.40994718 36.09527944 1.54206309 37.7562561 1.67372131 C41.20710541 1.94842753 44.65762128 2.22688825 48.10791016 2.50854492 C52.50837333 2.86775598 56.9093184 3.22056569 61.31049156 3.57096004 C65.54830429 3.90854883 69.78588805 4.2489683 74.0234375 4.58984375 C74.81826916 4.65361647 75.61310081 4.71738918 76.43201828 4.78309441 C81.28935271 5.17408589 86.14500173 5.58098895 91 6 C91.98349426 6.07904572 92.96698853 6.15809143 93.98028564 6.23953247 C99.76637033 6.76637033 99.76637033 6.76637033 102 9 C101.77753064 13.66361702 99.286056 16.93075093 96.6875 20.625 C95.76481455 21.97251424 94.84433779 23.32154283 93.92578125 24.671875 C93.20189209 25.73438477 93.20189209 25.73438477 92.46337891 26.81835938 C90.02369445 30.4554999 87.70056137 34.16424029 85.375 37.875 C75.31958726 53.87643667 65.11648165 69.78317522 54.79321289 85.61303711 C50.81964975 91.71531669 46.90162834 97.85152372 43 104 C33.18740511 119.45748937 23.20383846 134.79789304 13 150 C9.125 149.125 9.125 149.125 8 148 C7.79323142 146.02818486 7.65130507 144.04953397 7.53515625 142.0703125 C7.4585376 140.81452393 7.38191895 139.55873535 7.30297852 138.26489258 C7.26391388 137.59132721 7.22484924 136.91776184 7.18460083 136.2237854 C6.97698448 132.65507782 6.75280133 129.08739592 6.53125 125.51953125 C6.48662125 124.79410629 6.44199249 124.06868134 6.39601135 123.3212738 C5.99417012 116.81515337 5.54454899 110.31318963 5.0625 103.8125 C4.98193359 102.72211426 4.90136719 101.63172852 4.81835938 100.50830078 C4.355786 94.37037581 3.85295696 88.23699555 3.3125 82.10546875 C1.78699938 64.72595661 0.48509712 47.33868032 -0.59475708 29.92529297 C-0.73959815 27.60523752 -0.88808082 25.28540647 -1.04025269 22.96582031 C-1.25265742 19.70564644 -1.45063669 16.44491422 -1.64453125 13.18359375 C-1.71094818 12.19777817 -1.77736511 11.21196259 -1.84579468 10.1962738 C-1.92176376 8.8373275 -1.92176376 8.8373275 -1.99926758 7.45092773 C-2.04795486 6.66016342 -2.09664215 5.86939911 -2.14680481 5.05467224 C-2 3 -2 3 0 0 Z " fill="#010100" transform="translate(129,406)"/>
<path d="M0 0 C9.72203905 -1.51735761 20.84198077 0.53242453 30.64453125 1.27734375 C32.42662739 1.40978771 34.20874763 1.54190768 35.9908905 1.67372131 C39.70336728 1.9492443 43.41560567 2.22772621 47.12768555 2.50854492 C51.87263434 2.86739201 56.6180088 3.22018841 61.36356068 3.57096004 C65.03464413 3.84273499 68.70553991 4.11697669 72.37637901 4.39203072 C74.1261424 4.52298269 75.87594997 4.65334575 77.62580299 4.78309441 C80.07079064 4.96490366 82.51552039 5.14986019 84.96020508 5.33569336 C85.67359543 5.38820251 86.38698578 5.44071167 87.12199402 5.49481201 C99.44307627 6.44307627 99.44307627 6.44307627 102 9 C101.77753617 13.66350098 99.28625534 16.9309097 96.6875 20.625 C95.77126029 21.9620523 94.85730149 23.30066973 93.9453125 24.640625 C93.46352539 25.34767578 92.98173828 26.05472656 92.48535156 26.78320312 C89.93049903 30.59616515 87.49943668 34.4860272 85.0625 38.375 C81.32975343 44.31704408 77.57245684 50.24023091 73.75 56.125 C69.13546877 63.23016979 64.56276387 70.36148233 60 77.5 C55.09574593 85.17160564 50.1784108 92.83394193 45.22045898 100.47094727 C42.52716203 104.62488016 39.85354222 108.79086128 37.19140625 112.96484375 C29.25933641 125.4012772 21.24711149 137.76990852 13 150 C9.125 149.125 9.125 149.125 8 148 C7.80477534 146.16886144 7.67489439 144.33073141 7.5703125 142.4921875 C7.4631189 140.70192139 7.4631189 140.70192139 7.35375977 138.87548828 C7.31678986 138.22710999 7.27981995 137.57873169 7.24172974 136.91070557 C7.03881837 133.37203739 6.81843103 129.83446725 6.59765625 126.296875 C6.55078171 125.54346832 6.50390717 124.79006165 6.45561218 124.01382446 C5.91026279 115.37762088 5.23841963 106.75179188 4.5625 98.125 C4.30428676 94.81122907 4.04665617 91.4974129 3.7890625 88.18359375 C3.72425186 87.35051193 3.65944122 86.51743011 3.59266663 85.65910339 C2.39794294 70.27656205 1.25259521 54.89053393 0.17504883 39.49932861 C0.05761724 37.82265287 -0.06039114 36.14601744 -0.17895508 34.46942139 C-0.52212558 29.60740888 -0.85323793 24.74486744 -1.16549683 19.88076782 C-1.26265049 18.38994207 -1.36343644 16.89934809 -1.4680481 15.4090271 C-1.61022401 13.36973937 -1.73716094 11.32940612 -1.86328125 9.2890625 C-1.93844971 8.14131348 -2.01361816 6.99356445 -2.09106445 5.81103516 C-2 3 -2 3 0 0 Z " fill="#010100" transform="translate(413,408)"/>
</svg>
