<svg xmlns="http://www.w3.org/2000/svg" viewBox="0 0 640 400">
  <defs>
    <linearGradient id="experimentBg" x1="0" y1="0" x2="1" y2="1">
      <stop offset="0%" stop-color="#0f172a" />
      <stop offset="100%" stop-color="#1e293b" />
    </linearGradient>
  </defs>
  <rect width="640" height="400" rx="24" fill="url(#experimentBg)" />
  <rect x="48" y="56" width="544" height="64" rx="18" fill="#111827" stroke="#1f2937" stroke-width="4" />
  <rect x="64" y="72" width="160" height="32" rx="12" fill="#2563eb" />
  <rect x="240" y="72" width="160" height="32" rx="12" fill="#4b5563" opacity="0.8" />
  <rect x="416" y="72" width="160" height="32" rx="12" fill="#4b5563" opacity="0.8" />
  <rect x="48" y="144" width="544" height="208" rx="24" fill="#111827" stroke="#1f2937" stroke-width="4" />
  <rect x="72" y="168" width="160" height="192" rx="16" fill="#1f2937" />
  <rect x="96" y="192" width="112" height="24" rx="8" fill="#22d3ee" />
  <rect x="96" y="232" width="112" height="16" rx="8" fill="#334155" />
  <rect x="96" y="264" width="112" height="16" rx="8" fill="#334155" />
  <rect x="96" y="296" width="96" height="16" rx="8" fill="#334155" />
  <rect x="256" y="168" width="160" height="192" rx="16" fill="#1f2937" />
  <rect x="280" y="192" width="112" height="24" rx="8" fill="#22c55e" />
  <rect x="280" y="232" width="112" height="16" rx="8" fill="#334155" />
  <rect x="280" y="264" width="112" height="16" rx="8" fill="#334155" />
  <rect x="280" y="296" width="96" height="16" rx="8" fill="#334155" />
  <rect x="440" y="168" width="128" height="192" rx="16" fill="#1f2937" />
  <rect x="462" y="184" width="84" height="64" rx="14" fill="#0ea5e9" opacity="0.85" />
  <rect x="462" y="264" width="84" height="72" rx="14" fill="#f97316" opacity="0.85" />
  <circle cx="504" cy="216" r="12" fill="#38bdf8" />
  <circle cx="504" cy="300" r="12" fill="#fb923c" />
  <polyline points="144,152 320,120 504,152" fill="none" stroke="#38bdf8" stroke-width="6" stroke-linecap="round" stroke-linejoin="round" />
  <polygon points="504,152 512,140 520,152" fill="#38bdf8" />
  <rect x="272" y="336" width="96" height="32" rx="16" fill="#2563eb" />
  <rect x="392" y="336" width="96" height="32" rx="16" fill="#4b5563" />
</svg>
