<svg xmlns="http://www.w3.org/2000/svg" viewBox="0 0 640 400">
  <defs>
    <linearGradient id="teamBg" x1="0" y1="0" x2="1" y2="1">
      <stop offset="0%" stop-color="#111827" />
      <stop offset="100%" stop-color="#1f2937" />
    </linearGradient>
  </defs>
  <rect width="640" height="400" rx="24" fill="url(#teamBg)" />
  <rect x="48" y="60" width="544" height="96" rx="28" fill="#0f172a" stroke="#1f2937" stroke-width="4" />
  <rect x="72" y="88" width="160" height="40" rx="16" fill="#2563eb" />
  <rect x="248" y="88" width="160" height="40" rx="16" fill="#1d4ed8" opacity="0.65" />
  <rect x="424" y="88" width="152" height="40" rx="16" fill="#1d4ed8" opacity="0.35" />
  <rect x="48" y="180" width="544" height="184" rx="24" fill="#0f172a" stroke="#1f2937" stroke-width="4" />
  <rect x="72" y="204" width="496" height="64" rx="16" fill="#1f2937" />
  <circle cx="112" cy="236" r="18" fill="#22d3ee" />
  <circle cx="168" cy="236" r="18" fill="#6366f1" />
  <circle cx="224" cy="236" r="18" fill="#f97316" />
  <rect x="256" y="220" width="288" height="32" rx="12" fill="#334155" />
  <rect x="256" y="228" width="184" height="16" rx="8" fill="#3b82f6" />
  <rect x="72" y="288" width="240" height="64" rx="16" fill="#1f2937" />
  <rect x="96" y="308" width="160" height="24" rx="12" fill="#22d3ee" />
  <rect x="336" y="288" width="232" height="64" rx="16" fill="#1f2937" />
  <rect x="360" y="300" width="88" height="40" rx="14" fill="#22c55e" />
  <rect x="464" y="300" width="88" height="40" rx="14" fill="#6366f1" />
  <path d="M120 260c24 24 64 40 136 40" stroke="#22d3ee" stroke-width="6" stroke-linecap="round" />
  <path d="M344 276c48 0 72-12 104-40" stroke="#6366f1" stroke-width="6" stroke-linecap="round" />
  <rect x="256" y="200" width="32" height="32" rx="8" fill="#22c55e" />
  <rect x="304" y="192" width="32" height="32" rx="8" fill="#db2777" />
  <rect x="352" y="200" width="32" height="32" rx="8" fill="#facc15" />
  <rect x="400" y="192" width="32" height="32" rx="8" fill="#22d3ee" />
</svg>




