<?xml version="1.0" encoding="UTF-8"?>
<svg version="1.1" xmlns="http://www.w3.org/2000/svg" width="600" height="94">
<path d="M0 0 C7.59462335 -0.12772884 15.18896545 -0.21473821 22.78442383 -0.2746582 C25.36330517 -0.29966143 27.94211666 -0.3336753 30.52075195 -0.37719727 C34.24708382 -0.43847376 37.97247152 -0.46635342 41.69921875 -0.48828125 C43.40316048 -0.52699089 43.40316048 -0.52699089 45.14152527 -0.56648254 C55.72140552 -0.57011433 65.58135454 2.47554977 74 9 C74.825 9.556875 75.65 10.11375 76.5 10.6875 C85.11144658 18.65308809 88.39335021 29.4233205 89.20510864 40.89978027 C89.48816323 48.60002191 89.36620722 56.2974347 89.25 64 C89.2298907 66.33592207 89.21164783 68.67186099 89.1953125 71.0078125 C89.15170044 76.67224897 89.0851447 82.33604336 89 88 C81.49274257 88.07643488 73.98558654 88.12876094 66.47802734 88.16479492 C63.92720794 88.17982636 61.37641415 88.20025705 58.82568359 88.22631836 C55.14674537 88.26294972 51.46815065 88.27978346 47.7890625 88.29296875 C46.65949127 88.30845261 45.52992004 88.32393646 44.36611938 88.33988953 C31.56437851 88.34257453 20.21657432 84.46467862 10.62890625 75.7890625 C1.67240858 65.95194995 -0.46526348 54.95983986 -0.29296875 42.08984375 C-0.28872391 40.88179581 -0.28447906 39.67374786 -0.28010559 38.42909241 C-0.26341094 34.59832788 -0.22577474 30.76810358 -0.1875 26.9375 C-0.17244131 24.32878368 -0.15875498 21.72005905 -0.14648438 19.11132812 C-0.11353755 12.74070337 -0.06343014 6.3703903 0 0 Z M17 18 C9.17349183 27.52196617 6.40218354 37.54280372 7.5 49.71484375 C8.93138051 59.11946102 14.39019909 67.32951499 21.75 73.25 C31.33034359 79.84098826 40.60212229 81.25645896 52 80 C62.01623317 77.56614895 70.44483313 71.69840392 75.91796875 62.92578125 C81.25288706 52.62343307 82.52032591 43.62508688 79.375 32.375 C76.26196021 23.07957243 70.46484948 15.42965744 61.6953125 10.77734375 C46.17237586 3.67750879 29.31394179 5.80607713 17 18 Z " fill="#81B851" transform="translate(3,3)"/>
<path d="M0 0 C2.40672041 1.44403225 4.6309833 2.92550574 6.8125 4.6875 C7.28300781 4.33816406 7.75351562 3.98882812 8.23828125 3.62890625 C8.86089844 3.17386719 9.48351562 2.71882813 10.125 2.25 C10.73988281 1.79753906 11.35476563 1.34507813 11.98828125 0.87890625 C15.9692556 -1.72108771 20.210391 -1.89622338 24.8125 -1.3125 C29.31552856 0.1128538 31.94952896 2.35411839 34.1875 6.5 C36.8592557 12.13391962 36.93842265 18.36228537 36.91015625 24.49609375 C36.90532227 26.35717773 36.90532227 26.35717773 36.90039062 28.25585938 C36.88782227 30.17108398 36.88782227 30.17108398 36.875 32.125 C36.87048828 33.42888672 36.86597656 34.73277344 36.86132812 36.07617188 C36.84959251 39.27999552 36.83317363 42.48372363 36.8125 45.6875 C34.83340602 45.71436553 32.85421029 45.73383375 30.875 45.75 C29.77285156 45.76160156 28.67070312 45.77320313 27.53515625 45.78515625 C24.8125 45.6875 24.8125 45.6875 23.8125 44.6875 C23.74951272 43.09627216 23.75318415 41.50230927 23.78515625 39.91015625 C23.80352539 38.42612305 23.80352539 38.42612305 23.82226562 36.91210938 C23.85683691 34.83911294 23.89574502 32.76618329 23.93945312 30.69335938 C24.00906678 24.3339476 24.05804874 17.72707008 21.8125 11.6875 C18.56323878 9.52132585 18.2139758 9.47414331 14.625 10.0625 C13.366875 10.26875 12.10875 10.475 10.8125 10.6875 C9.6638433 14.39917362 9.60707567 17.99086227 9.49609375 21.859375 C9.47531265 22.5417926 9.45453156 23.22421021 9.43312073 23.92730713 C9.36797948 26.09727356 9.30890596 28.26735624 9.25 30.4375 C9.20678103 31.91277221 9.16316568 33.38803287 9.11914062 34.86328125 C9.01233482 38.47123166 8.91096847 42.07931133 8.8125 45.6875 C4.8525 45.6875 0.8925 45.6875 -3.1875 45.6875 C-3.20731934 44.76936523 -3.22713867 43.85123047 -3.24755859 42.90527344 C-3.32576955 39.49078175 -3.41246584 36.07672298 -3.50488281 32.66259766 C-3.54310666 31.18644464 -3.57797103 29.71020057 -3.609375 28.23388672 C-3.65516986 26.10871906 -3.71313837 23.98417458 -3.7734375 21.859375 C-3.82056885 19.9427002 -3.82056885 19.9427002 -3.86865234 17.98730469 C-4.16272443 14.94390626 -4.41717774 13.15231602 -6.1875 10.6875 C-9.29172498 9.74273588 -11.31598521 9.42120381 -14.4375 10.375 C-16.62709338 12.01719503 -17.19064598 13.12871328 -18.1875 15.6875 C-18.55444621 18.97970552 -18.55444621 18.97970552 -18.6015625 22.640625 C-18.62092865 23.30084656 -18.6402948 23.96106812 -18.6602478 24.64129639 C-18.71979349 26.73990153 -18.76632722 28.83856228 -18.8125 30.9375 C-18.85070294 32.3646066 -18.88975602 33.79169072 -18.9296875 35.21875 C-19.0254733 38.70812691 -19.10959642 42.19767286 -19.1875 45.6875 C-23.1475 45.6875 -27.1075 45.6875 -31.1875 45.6875 C-31.1875 30.5075 -31.1875 15.3275 -31.1875 -0.3125 C-27.5575 -0.3125 -23.9275 -0.3125 -20.1875 -0.3125 C-19.8575 1.0075 -19.5275 2.3275 -19.1875 3.6875 C-18.259375 3.048125 -17.33125 2.40875 -16.375 1.75 C-10.94148645 -1.76580288 -6.08114476 -2.50400078 0 0 Z " fill="#585859" transform="translate(410.1875,37.3125)"/>
<path d="M0 0 C3.96 0 7.92 0 12 0 C12.33 22.11 12.66 44.22 13 67 C9.37 67 5.74 67 2 67 C1.34 65.35 0.68 63.7 0 62 C-0.70125 62.61875 -1.4025 63.2375 -2.125 63.875 C-6.3056009 66.96500936 -9.81448489 68.27996404 -15 67.875 C-20.90942694 66.89572354 -25.25207273 63.51977502 -28.89453125 58.81640625 C-33.22319164 51.70394306 -33.84641781 44.00114383 -32 36 C-29.55883739 28.91861094 -26.52953814 24.68028513 -20 21 C-12.55605765 18.71974098 -8.11266161 19.95171645 -1 23 C-0.67 15.41 -0.34 7.82 0 0 Z M-17.75 33.5 C-21.23166104 37.67799325 -20.41544513 43.89804223 -20 49 C-18.46696367 53.1610986 -17.69096643 54.53935571 -14 57 C-8.20055854 57.56721217 -8.20055854 57.56721217 -3.0625 55.1875 C0.45948313 51.45206335 0.16159727 47.99956084 0.1875 43.0625 C0.20876953 41.22365234 0.20876953 41.22365234 0.23046875 39.34765625 C0.01412122 36.20511673 -0.21229666 34.54449775 -2 32 C-8.5811984 28.07928606 -11.99063735 28.56340344 -17.75 33.5 Z " fill="#545455" transform="translate(311,16)"/>
<path d="M0 0 C4.86860345 4.40890698 7.69715987 8.85539257 8.3359375 15.48828125 C8.42191467 23.9054462 8.20559764 30.13623191 2.52734375 36.703125 C-2.43374278 41.53519982 -8.45965402 43.8195889 -15.359375 44.09375 C-22.60812176 43.59383643 -28.50268448 40.97749473 -33.375 35.5625 C-38.0642233 29.9170943 -38.44964971 24.42442439 -38.3046875 17.2890625 C-37.66166254 10.34769048 -35.19691458 5.79434368 -30.125 1.0625 C-21.31913147 -5.9175646 -9.41321045 -6.26326454 0 0 Z M-22 8 C-26.13782643 13.61633036 -25.62360771 19.29200358 -25 26 C-23.82460715 29.4674089 -23.0874111 31.14560556 -20.25 33.375 C-16.93906974 34.29470285 -14.42297201 34.42036498 -11 34 C-6.4794689 30.68494386 -4.91249317 27.47495904 -4 22 C-3.91570512 15.96237925 -4.98493588 11.70336083 -9 7 C-13.70521054 3.76516775 -17.60790272 4.73408151 -22 8 Z " fill="#545455" transform="translate(368,40)"/>
<path d="M0 0 C12.21 0 24.42 0 37 0 C37 3.63 37 7.26 37 11 C28.75 11 20.5 11 12 11 C12 16.28 12 21.56 12 27 C19.59 27 27.18 27 35 27 C35 30.3 35 33.6 35 37 C27.41 37 19.82 37 12 37 C12 45.91 12 54.82 12 64 C8.04 64 4.08 64 0 64 C0 42.88 0 21.76 0 0 Z " fill="#565657" transform="translate(115,19)"/>
<path d="M0 0 C4.80521443 3.6279904 7.1127891 8.28102332 8.4921875 14.0390625 C8.88241629 17.44628407 8.75390625 20.89472355 8.75390625 24.32421875 C-1.47609375 24.32421875 -11.70609375 24.32421875 -22.24609375 24.32421875 C-21.25609375 26.30421875 -20.26609375 28.28421875 -19.24609375 30.32421875 C-19.24609375 30.98421875 -19.24609375 31.64421875 -19.24609375 32.32421875 C-11.64634847 35.61059509 -3.22283228 34.7423056 4.75390625 33.32421875 C5.24890625 37.77921875 5.24890625 37.77921875 5.75390625 42.32421875 C-3.95091142 45.42150099 -14.11430937 46.96166731 -23.58203125 42.1328125 C-29.71039522 37.95231143 -32.71430762 32.49641363 -34.24609375 25.32421875 C-34.88866578 17.13142531 -32.4506409 9.68533194 -27.24609375 3.32421875 C-19.41724766 -3.42541725 -9.30776669 -5.35901718 0 0 Z M-20.24609375 10.32421875 C-20.90609375 11.97421875 -21.56609375 13.62421875 -22.24609375 15.32421875 C-15.97609375 15.32421875 -9.70609375 15.32421875 -3.24609375 15.32421875 C-4.28052877 9.7457591 -4.28052877 9.7457591 -8.24609375 6.32421875 C-13.68297047 5.53340032 -16.46805387 6.33029087 -20.24609375 10.32421875 Z " fill="#585859" transform="translate(220.24609375,38.67578125)"/>
<path d="M0 0 C3.95099424 3.23426059 6.13364257 7.6431152 7.72265625 12.41015625 C7.72265625 16.37015625 7.72265625 20.33015625 7.72265625 24.41015625 C-2.17734375 24.41015625 -12.07734375 24.41015625 -22.27734375 24.41015625 C-19.33458729 32.04919366 -19.33458729 32.04919366 -15.8671875 33.8984375 C-9.4349882 35.16935471 -2.66757717 34.79182834 3.72265625 33.41015625 C5.72265625 39.03515625 5.72265625 39.03515625 5.72265625 42.41015625 C-2.88967869 45.23943842 -14.52726612 46.68576549 -23.02734375 42.78515625 C-29.08339097 38.91036988 -32.64763321 33.30800085 -34.27734375 26.41015625 C-35.22329107 19.1276577 -33.89531446 12.28637644 -29.765625 6.171875 C-22.32129807 -2.97879204 -10.5955962 -6.07016702 0 0 Z M-22.27734375 13.41015625 C-22.27734375 14.07015625 -22.27734375 14.73015625 -22.27734375 15.41015625 C-16.00734375 15.41015625 -9.73734375 15.41015625 -3.27734375 15.41015625 C-4.43286101 8.50539866 -4.43286101 8.50539866 -8.27734375 6.41015625 C-15.48761016 5.34634645 -18.53424757 7.14330582 -22.27734375 13.41015625 Z " fill="#565657" transform="translate(268.27734375,38.58984375)"/>
<path d="M0 0 C0.66 0 1.32 0 2 0 C2 5.61 2 11.22 2 17 C-0.05078125 17.9765625 -2.1015625 18.953125 -4.15234375 19.9296875 C-6.16332459 20.8684977 -6.16332459 20.8684977 -7 23 C-7.21377721 28.60703213 -7.21377721 28.60703213 -6 34 C-3.71294022 35.11973158 -3.71294022 35.11973158 -1 36 C2.50190633 37.42977241 5.8656138 38.86607287 9 41 C10.125 44.3125 10.125 44.3125 10 47 C8.125 49.0625 8.125 49.0625 5 51 C0.48331004 51.14384363 -3.72494716 50.42501761 -8 49 C-8 50.65 -8 52.3 -8 54 C-7.04287109 54.09087891 -7.04287109 54.09087891 -6.06640625 54.18359375 C-5.24011719 54.26738281 -4.41382812 54.35117188 -3.5625 54.4375 C-2.73878906 54.51871094 -1.91507813 54.59992188 -1.06640625 54.68359375 C1 55 1 55 2 56 C2.04080783 57.99958364 2.04254356 60.00045254 2 62 C-1.31248187 62.02888146 -4.62493167 62.04675799 -7.9375 62.0625 C-8.88302734 62.07087891 -9.82855469 62.07925781 -10.80273438 62.08789062 C-12.15141602 62.09272461 -12.15141602 62.09272461 -13.52734375 62.09765625 C-14.77632446 62.10551147 -14.77632446 62.10551147 -16.05053711 62.11352539 C-18 62 -18 62 -19 61 C-19.08767112 58.92737924 -19.10695873 56.85179706 -19.09765625 54.77734375 C-19.09443359 53.51728516 -19.09121094 52.25722656 -19.08789062 50.95898438 C-19.07953403 49.61848891 -19.07106907 48.27799412 -19.0625 46.9375 C-19.0574866 45.59310058 -19.05292342 44.2486994 -19.04882812 42.90429688 C-19.03699488 39.60282059 -19.02050971 36.30143197 -19 33 C-22.63 32.67 -26.26 32.34 -30 32 C-27.92554977 27.85109954 -25.42370483 25.13435018 -22.1875 21.921875 C-21.61797607 21.35043762 -21.04845215 20.77900024 -20.46166992 20.19024658 C-19.2604332 18.98765211 -18.05668003 17.78756666 -16.85058594 16.58984375 C-14.99959045 14.74959283 -13.15954554 12.89887367 -11.3203125 11.046875 C-10.15168276 9.87956616 -8.98243316 8.71287749 -7.8125 7.546875 C-7.26037842 6.99070496 -6.70825684 6.43453491 -6.1394043 5.86151123 C-2.22993635 2 -2.22993635 2 0 2 C0 1.34 0 0.68 0 0 Z " fill="#7A7A7A" transform="translate(44,14)"/>
<path d="M0 0 C-0.25561323 2.3431213 -0.59270772 4.67843403 -1 7 C-3.74485136 8.37242568 -5.19723654 7.34469472 -8 6.4921875 C-12.56654301 5.36838981 -16.64085039 5.33488423 -20.9375 7.4375 C-22.88293306 8.83738726 -22.88293306 8.83738726 -24 10 C-24.59741593 14.08466811 -24.59741593 14.08466811 -24 18 C-20.03796245 21.90825423 -16.09713437 24.08352512 -11 26.375 C-5.26402972 29.07975427 -1.56604405 31.70187741 2 37 C3.78051245 42.34153735 3.70509123 47.07088389 1.4375 52.1875 C-1.36966529 57.28049988 -5.55267736 60.18422579 -11 62 C-19.86779842 62.51811856 -27.71367597 62.55128173 -36 59 C-35.34 56.36 -34.68 53.72 -34 51 C-33.29875 51.2165625 -32.5975 51.433125 -31.875 51.65625 C-24.723281 53.75512405 -18.87530821 55.36353437 -11.625 52.8125 C-8.5557516 50.69325706 -7.75956981 49.62905576 -7 46 C-7.13752425 42.63065579 -7.43344724 40.70570608 -9.55859375 38.05859375 C-13.30147104 34.90259962 -17.6206827 33.1570561 -22.06835938 31.17578125 C-27.71905258 28.51725455 -31.37560955 25.58104258 -34.03125 19.7265625 C-35.28717464 14.0958337 -35.06757407 9.98890159 -32 5 C-23.66115736 -4.15238826 -10.92400058 -4.76576686 0 0 Z " fill="#7A7A7A" transform="translate(491,21)"/>
<path d="M0 0 C6.48616937 3.80132057 10.18256542 9.07487337 12.21875 16.25 C13.61358342 22.75922264 12.56985578 28.52055133 9.6875 34.4375 C5.73391543 40.17818467 1.55808521 44.26375366 -5.37109375 45.93359375 C-12.77738913 47.17867287 -18.43444889 45.33809979 -24.625 41.25 C-30.17089912 35.44615208 -32.68332257 28.67030616 -32.51953125 20.64453125 C-31.7692355 12.64609539 -28.28063496 6.73421978 -22.3125 1.4375 C-15.64229848 -2.6672394 -7.20333495 -3.2014822 0 0 Z M-19.3125 9.4375 C-23.54925872 14.94528633 -22.92833385 21.8151771 -22.3125 28.4375 C-20.7415396 33.15038119 -18.66336836 35.97831354 -14.3125 38.4375 C-9.80673039 39.24034622 -6.44723011 39.07886919 -2.4375 36.8125 C2.65940549 31.11595858 3.28511999 26.12999978 3.10546875 18.64453125 C2.5001771 14.00019063 0.95379935 10.7845595 -2.3125 7.4375 C-8.4826911 3.64045932 -13.96925481 4.92542629 -19.3125 9.4375 Z " fill="#7A7A7A" transform="translate(529.3125,37.5625)"/>
<path d="M0 0 C4.06288685 2.03144342 6.12516639 3.95106519 9.25 7.1875 C12.46290142 10.47744684 15.69065861 13.69614261 19.1875 16.6875 C23.31900152 20.22878702 27.43724164 23.87819179 31 28 C31 28.66 31 29.32 31 30 C26.71 30 22.42 30 18 30 C18 39.9 18 49.8 18 60 C12.39 60 6.78 60 1 60 C1 57.69 1 55.38 1 53 C1.928125 52.566875 2.85625 52.13375 3.8125 51.6875 C6.57544022 50.22476694 8.10578461 49.3844829 10 47 C10.51030631 44.86148588 10.51030631 44.86148588 10.4375 42.5625 C10.45683594 41.80066406 10.47617187 41.03882813 10.49609375 40.25390625 C9.79861096 37.08502775 8.50701118 36.04078071 6 34 C3.78725345 32.68517959 1.53361401 31.43747929 -0.75 30.25 C-1.35199219 29.93417969 -1.95398437 29.61835937 -2.57421875 29.29296875 C-4.046028 28.52202105 -5.52254742 27.76007676 -7 27 C-7.36110231 22.54640481 -7.36110231 22.54640481 -5.8125 20.203125 C-3.41656352 18.61271889 -1.85539092 18.66501813 1 18.75 C1.86625 18.76546875 2.7325 18.7809375 3.625 18.796875 C6 19 6 19 9 20 C8.67 18.68 8.34 17.36 8 16 C5.69 15.34 3.38 14.68 1 14 C0.67 9.38 0.34 4.76 0 0 Z " fill="#787878" transform="translate(49,16)"/>
<path d="M0 0 C0.89203125 0.10183594 1.7840625 0.20367187 2.703125 0.30859375 C3.37859375 0.39238281 4.0540625 0.47617188 4.75 0.5625 C4.79254356 2.56204746 4.79080783 4.56291636 4.75 6.5625 C3.19599686 8.11650314 1.52741275 7.7530996 -0.625 7.875 C-4.189516 8.23018394 -4.189516 8.23018394 -7.1875 10.0625 C-8.78027656 13.81020954 -9.48537385 17.56291705 -10.25 21.5625 C-6.62 21.5625 -2.99 21.5625 0.75 21.5625 C0.75 23.8725 0.75 26.1825 0.75 28.5625 C-4.2 29.0575 -4.2 29.0575 -9.25 29.5625 C-9.24214478 31.23590454 -9.24214478 31.23590454 -9.23413086 32.94311523 C-9.21608225 37.06729333 -9.20456851 41.19146791 -9.19506836 45.31567383 C-9.19002782 47.10344021 -9.18319546 48.89120245 -9.17456055 50.67895508 C-9.1624827 53.24301168 -9.15676906 55.80701397 -9.15234375 58.37109375 C-9.14718246 59.1752623 -9.14202118 59.97943085 -9.13670349 60.80796814 C-9.13650785 62.72651715 -9.18798017 64.64495368 -9.25 66.5625 C-9.745 67.0575 -9.745 67.0575 -10.25 67.5625 C-13.22 67.5625 -16.19 67.5625 -19.25 67.5625 C-19.25 54.6925 -19.25 41.8225 -19.25 28.5625 C-21.23 28.5625 -23.21 28.5625 -25.25 28.5625 C-25.25 26.2525 -25.25 23.9425 -25.25 21.5625 C-23.27 21.5625 -21.29 21.5625 -19.25 21.5625 C-19.311875 20.5725 -19.37375 19.5825 -19.4375 18.5625 C-19.39505263 13.30963849 -18.19014419 8.72758844 -14.6328125 4.7578125 C-9.77787271 0.40295234 -6.53719424 -0.77414142 0 0 Z " fill="#7E7E7E" transform="translate(567.25,15.4375)"/>
<path d="M0 0 C0 3.63 0 7.26 0 11 C-2.50651042 11.61848958 -5.01302083 12.23697917 -7.51953125 12.85546875 C-10.78100213 14.36036791 -11.44301192 15.78664163 -13 19 C-13.49940711 22.18409748 -13.49940711 22.18409748 -13.51171875 25.61328125 C-13.54716797 26.86044922 -13.58261719 28.10761719 -13.61914062 29.39257812 C-13.65297852 31.33293945 -13.65297852 31.33293945 -13.6875 33.3125 C-13.72166016 34.62541016 -13.75582031 35.93832031 -13.79101562 37.29101562 C-13.87338729 40.52704519 -13.93837279 43.76350892 -14 47 C-18.29 47 -22.58 47 -27 47 C-27 31.82 -27 16.64 -27 1 C-23.37 1 -19.74 1 -16 1 C-15.67 2.65 -15.34 4.3 -15 6 C-14.05125 5.195625 -13.1025 4.39125 -12.125 3.5625 C-7.9899898 0.05673048 -5.491217 -0.1016892 0 0 Z " fill="#5E5E5F" transform="translate(184,36)"/>
<path d="M0 0 C0 3.63 0 7.26 0 11 C3.63 11 7.26 11 11 11 C11 13.31 11 15.62 11 18 C7.37 18 3.74 18 0 18 C0.06889805 21.93327952 0.15687179 25.86562514 0.26245117 29.7980957 C0.31201319 31.7929063 0.34651133 33.78807257 0.38085938 35.78320312 C0.4340332 37.66362305 0.4340332 37.66362305 0.48828125 39.58203125 C0.51446533 40.73936768 0.54064941 41.8967041 0.56762695 43.08911133 C0.7741694 45.97227392 0.7741694 45.97227392 2.30151367 47.8581543 C4.99295394 49.66753566 7.83033735 49.70097522 11 50 C11 52.31 11 54.62 11 57 C8.93867858 57.10864945 6.87568679 57.18588321 4.8125 57.25 C3.66394531 57.29640625 2.51539063 57.3428125 1.33203125 57.390625 C-2.70878943 56.91690628 -4.20686954 55.91715934 -7 53 C-9.08503948 48.91813598 -9.23400733 45.49586134 -9.1953125 40.94921875 C-9.19106766 39.96100883 -9.19106766 39.96100883 -9.18673706 38.95283508 C-9.17560924 36.86419938 -9.15051948 34.77600444 -9.125 32.6875 C-9.11496059 31.26498018 -9.10583642 29.8424536 -9.09765625 28.41992188 C-9.07569447 24.94647319 -9.04121646 21.47327967 -9 18 C-11.31 18 -13.62 18 -16 18 C-16 15.69 -16 13.38 -16 11 C-13.69 11 -11.38 11 -9 11 C-9 8.03 -9 5.06 -9 2 C-2.25 0 -2.25 0 0 0 Z " fill="#7A7A7A" transform="translate(586,26)"/>
<path d="M0 0 C0.66 0.33 1.32 0.66 2 1 C-0.64 3.64 -3.28 6.28 -6 9 C-6 6 -6 6 -3.5625 3.375 C-2.716875 2.59125 -1.87125 1.8075 -1 1 C-0.67 0.67 -0.34 0.34 0 0 Z " fill="#848484" transform="translate(289,38)"/>
</svg>
