<?xml version="1.0" standalone="no"?>
<!DOCTYPE svg PUBLIC "-//W3C//DTD SVG 20010904//EN"
 "http://www.w3.org/TR/2001/REC-SVG-20010904/DTD/svg10.dtd">
<svg version="1.0" xmlns="http://www.w3.org/2000/svg"
 width="200.000000pt" height="200.000000pt" viewBox="0 0 200.000000 200.000000"
 preserveAspectRatio="xMidYMid meet">

<g transform="translate(0.000000,200.000000) scale(0.100000,-0.100000)"
fill="#000000" stroke="none">
<path d="M0 1000 l0 -1000 1000 0 1000 0 0 1000 0 1000 -1000 0 -1000 0 0
-1000z m810 312 l-90 -3 0 -444 0 -445 -95 0 -95 0 0 445 0 445 -90 0 c-49 0
-90 2 -90 3 0 2 62 65 137 140 l138 137 137 -137 138 -138 -90 -3z m760 0
l-90 -3 -1 -32 c0 -18 -1 -216 -2 -442 l-2 -410 -90 0 -90 0 -3 443 -2 442
-92 0 -93 0 140 140 140 140 138 -137 137 -138 -90 -3z"/>
<path d="M590 1271 c0 -8 85 -91 93 -91 4 0 0 34 -9 78 -4 18 -8 21 -18 13 -7
-6 -15 -8 -18 -6 -9 10 -48 14 -48 6z"/>
<path d="M1330 1281 c0 -14 112 -112 124 -108 9 3 9 93 1 108 -7 10 -125 11
-125 0z"/>
</g>
</svg>
