<?xml version="1.0" encoding="UTF-8"?>
<svg version="1.1" xmlns="http://www.w3.org/2000/svg" width="200" height="200">
<path d="M0 0 C66 0 132 0 200 0 C200 66 200 132 200 200 C134 200 68 200 0 200 C0 134 0 68 0 0 Z " fill="#4580F5" transform="translate(0,0)"/>
<path d="M0 0 C0.79719955 0.00222061 1.59439911 0.00444122 2.41575623 0.00672913 C3.31661453 0.00680466 4.21747284 0.00688019 5.14562988 0.00695801 C6.12478867 0.01211929 7.10394745 0.01728058 8.11277771 0.02259827 C9.11018478 0.02401321 10.10759186 0.02542816 11.13522339 0.02688599 C14.3348027 0.03250337 17.53431315 0.04505881 20.73387146 0.05775452 C22.89728191 0.06276728 25.06069345 0.06733057 27.22410583 0.07142639 C32.53988471 0.08247845 37.85562317 0.09923348 43.17137146 0.12025452 C41.95608111 3.46634675 40.67200422 6.03763825 38.37840271 8.75697327 C37.55565857 9.74794006 37.55565857 9.74794006 36.71629333 10.75892639 C36.14459412 11.43503967 35.5728949 12.11115295 34.98387146 12.80775452 C30.01087784 18.7208006 25.62950302 24.75149514 21.17137146 31.12025452 C29.42137146 31.12025452 37.67137146 31.12025452 46.17137146 31.12025452 C44.13393254 35.19513236 41.87534804 37.43787976 38.54637146 40.37025452 C32.45358607 45.8526342 26.64484789 51.57391625 20.90525818 57.42396545 C17.79205953 60.57776066 14.64767431 63.61947974 11.28465271 66.50697327 C6.498312 70.63240683 2.10147566 75.1190411 -2.32862854 79.62025452 C-14.13785965 91.6190399 -14.13785965 91.6190399 -19.82862854 96.12025452 C-20.15862854 96.12025452 -20.48862854 96.12025452 -20.82862854 96.12025452 C-20.2590844 86.95330594 -18.05688232 78.34576009 -15.76612854 69.49525452 C-15.38460762 67.99932933 -15.00374311 66.50323657 -14.62355042 65.00697327 C-13.70065773 61.37572232 -12.76441692 57.74829968 -11.82862854 54.12025452 C-18.42862854 54.12025452 -25.02862854 54.12025452 -31.82862854 54.12025452 C-30.9322306 50.53466276 -29.94624567 48.2741979 -28.16065979 45.10462952 C-27.60338196 44.11140686 -27.04610413 43.1181842 -26.47193909 42.09486389 C-25.86777161 41.0307428 -25.26360413 39.9666217 -24.64112854 38.87025452 C-24.0234259 37.77519592 -23.40572327 36.68013733 -22.76930237 35.55189514 C-18.2381682 27.54385809 -13.64478101 19.5723362 -9.01612854 11.62025452 C-8.41196106 10.58223694 -7.80779358 9.54421936 -7.18531799 8.4747467 C-6.62804016 7.52245178 -6.07076233 6.57015686 -5.49659729 5.58900452 C-5.00441711 4.74789124 -4.51223694 3.90677795 -4.00514221 3.04017639 C-2.23209519 0.14678734 -2.23209519 0.14678734 0 0 Z " fill="#FBFDFD" transform="translate(92.82862854003906,50.87974548339844)"/>
<path d="M0 0 C15.51 0 31.02 0 47 0 C47.495 2.475 47.495 2.475 48 5 C45.75 7.625 45.75 7.625 43 10 C42.401875 10.598125 41.80375 11.19625 41.1875 11.8125 C40.795625 12.204375 40.40375 12.59625 40 13 C39.34 12.67 38.68 12.34 38 12 C38.49371094 11.37351562 38.98742187 10.74703125 39.49609375 10.1015625 C40.13675781 9.28429688 40.77742188 8.46703125 41.4375 7.625 C42.39462891 6.40683594 42.39462891 6.40683594 43.37109375 5.1640625 C45.02223547 3.10601894 45.02223547 3.10601894 46 1 C30.82 1 15.64 1 0 1 C0 0.67 0 0.34 0 0 Z " fill="#577CCB" transform="translate(90,50)"/>
<path d="M0 0 C14.85 0 29.7 0 45 0 C43.22157001 4.44607497 42.35585467 5.9797308 39 9 C39 7.35 39 5.7 39 4 C39.66 4 40.32 4 41 4 C41 3.34 41 2.68 41 2 C27.14 2 13.28 2 -1 2 C-0.67 1.34 -0.34 0.68 0 0 Z " fill="#E2F7FE" transform="translate(91,51)"/>
<path d="M0 0 C0.66 0 1.32 0 2 0 C0.68706289 3.44311058 -0.8143342 6.64211396 -2.6015625 9.86328125 C-3.09140625 10.74951172 -3.58125 11.63574219 -4.0859375 12.54882812 C-4.59382813 13.46083984 -5.10171875 14.37285156 -5.625 15.3125 C-6.140625 16.24384766 -6.65625 17.17519531 -7.1875 18.13476562 C-8.45573517 20.42463469 -9.72664162 22.71297715 -11 25 C-11.66 23.68 -12.32 22.36 -13 21 C-12.01 20.67 -11.02 20.34 -10 20 C-10 18.68 -10 17.36 -10 16 C-9.34 16 -8.68 16 -8 16 C-8 14.35 -8 12.7 -8 11 C-7.360625 10.7525 -6.72125 10.505 -6.0625 10.25 C-3.8486428 9.21995468 -3.8486428 9.21995468 -3.4375 7.1875 C-3.293125 6.465625 -3.14875 5.74375 -3 5 C-1.5625 2.25 -1.5625 2.25 0 0 Z " fill="#5684E4" transform="translate(77,71)"/>
<path d="M0 0 C2.140625 0.37890625 2.140625 0.37890625 4 1 C3.2265625 1.70125 2.453125 2.4025 1.65625 3.125 C-4.37541288 8.61264956 -10.30741824 14.15673225 -16 20 C-16.33 19.01 -16.66 18.02 -17 17 C-16.34 17 -15.68 17 -15 17 C-14.74863281 16.42121094 -14.49726562 15.84242187 -14.23828125 15.24609375 C-12.84407086 12.71716323 -11.26209642 11.0656954 -9.1875 9.0625 C-6.78867055 6.74608964 -4.47525544 4.41924906 -2.25 1.9375 C-1.5075 1.298125 -0.765 0.65875 0 0 Z " fill="#E3F3FD" transform="translate(132,86)"/>
<path d="M0 0 C6.6 0 13.2 0 20 0 C18.875 10.125 18.875 10.125 17.4375 15.0625 C17.16808594 16.00222656 16.89867188 16.94195312 16.62109375 17.91015625 C16.41613281 18.59980469 16.21117188 19.28945312 16 20 C15.1276588 17.00519083 14.89170234 14.36424089 14.9375 11.25 C14.94652344 10.45078125 14.95554687 9.6515625 14.96484375 8.828125 C14.97644531 8.22484375 14.98804687 7.6215625 15 7 C15.99 7 16.98 7 18 7 C18 5.02 18 3.04 18 1 C12.06 1 6.12 1 0 1 C0 0.67 0 0.34 0 0 Z " fill="#6B90DD" transform="translate(61,105)"/>
<path d="M0 0 C0.33 0.99 0.66 1.98 1 3 C-0.52994792 4.20442708 -2.05989583 5.40885417 -3.58984375 6.61328125 C-5.27155077 8.05683091 -5.27155077 8.05683091 -6 11 C-8.21593183 12.71054387 -10.46190652 13.75321724 -13 15 C-13.66 14.67 -14.32 14.34 -15 14 C-10.05 9.38 -5.1 4.76 0 0 Z " fill="#5685E3" transform="translate(116,105)"/>
<path d="M0 0 C0.99 0.33 1.98 0.66 3 1 C-0.63 4.63 -4.26 8.26 -8 12 C-8.33 11.01 -8.66 10.02 -9 9 C-8.38125 8.7525 -7.7625 8.505 -7.125 8.25 C-4.5927804 6.76045906 -4.19281342 5.62418952 -3 3 C-1.375 1.25 -1.375 1.25 0 0 Z " fill="#DFF3FF" transform="translate(95,122)"/>
<path d="M0 0 C0.33 0 0.66 0 1 0 C1 1.65 1 3.3 1 5 C1.763125 4.814375 2.52625 4.62875 3.3125 4.4375 C8.30269322 3.84544318 13.02603203 4.42471901 18 5 C18 5.33 18 5.66 18 6 C11.4 6 4.8 6 -2 6 C-1 2 -1 2 0 0 Z " fill="#E7F9FE" transform="translate(63,99)"/>
<path d="M0 0 C0.33 1.32 0.66 2.64 1 4 C0.071875 4.5878125 0.071875 4.5878125 -0.875 5.1875 C-3.32496368 7.27717491 -4.01879998 8.97463327 -5 12 C-6.32 11.67 -7.64 11.34 -9 11 C-6.03 7.37 -3.06 3.74 0 0 Z " fill="#5D87E5" transform="translate(126,65)"/>
<path d="M0 0 C0 3 0 3 -1.5 4.5625 C-1.995 5.036875 -2.49 5.51125 -3 6 C-3 6.66 -3 7.32 -3 8 C-5 10 -5 10 -7.625 10.125 C-8.40875 10.08375 -9.1925 10.0425 -10 10 C-3.84965831 2.51708428 -3.84965831 2.51708428 0 0 Z " fill="#5C86E5" transform="translate(82,138)"/>
<path d="M0 0 C0.66 0.33 1.32 0.66 2 1 C1.58443583 5.84824868 -0.37448245 7.88036862 -4 11 C-5.31828123 11.69595748 -6.64928912 12.36928426 -8 13 C-7.59007812 12.48050781 -7.18015625 11.96101563 -6.7578125 11.42578125 C-3.92363424 7.7576223 -1.40171967 4.48550294 0 0 Z " fill="#5682E5" transform="translate(136,50)"/>
<path d="M0 0 C0.33 0.66 0.66 1.32 1 2 C-0.54442235 5.63393495 -1.48567857 6.78822059 -5.1875 8.3125 C-6.5796875 8.6528125 -6.5796875 8.6528125 -8 9 C-7.04270084 7.87411986 -6.08412105 6.7493285 -5.125 5.625 C-4.59132813 4.99851562 -4.05765625 4.37203125 -3.5078125 3.7265625 C-2.38567993 2.44163349 -1.20628025 1.20628025 0 0 Z " fill="#5682E3" transform="translate(127,94)"/>
<path d="M0 0 C0.68359375 1.734375 0.68359375 1.734375 1 4 C-0.21484375 6.140625 -0.21484375 6.140625 -1.9375 8.25 C-2.50339844 8.95640625 -3.06929688 9.6628125 -3.65234375 10.390625 C-4.31943359 11.18726562 -4.31943359 11.18726562 -5 12 C-5 8.55639368 -4.20408468 7.25204608 -2.5 4.3125 C-2.0359375 3.50425781 -1.571875 2.69601563 -1.09375 1.86328125 C-0.7328125 1.24839844 -0.371875 0.63351563 0 0 Z " fill="#DEF1FD" transform="translate(86,59)"/>
<path d="M0 0 C4.29 0 8.58 0 13 0 C12.34 1.32 11.68 2.64 11 4 C10.67 3.01 10.34 2.02 10 1 C6.7 1 3.4 1 0 1 C0 0.67 0 0.34 0 0 Z " fill="#DEF2FE" transform="translate(126,82)"/>
<path d="M0 0 C2 3 2 3 2 7 C1.01 7.99 0.02 8.98 -1 10 C-0.67 6.7 -0.34 3.4 0 0 Z " fill="#D9EDFD" transform="translate(73,137)"/>
</svg>
