<?xml version="1.0" encoding="UTF-8"?>
<svg version="1.1" xmlns="http://www.w3.org/2000/svg" width="597" height="228">
<path d="M0 0 C1.53072901 5.79347794 -0.22886555 9.76738111 -2.1875 15.25 C-2.49236328 16.17296875 -2.79722656 17.0959375 -3.11132812 18.046875 C-3.41876953 18.9234375 -3.72621094 19.8 -4.04296875 20.703125 C-4.32164795 21.50395508 -4.60032715 22.30478516 -4.88745117 23.12988281 C-6 25 -6 25 -7.9387207 25.80371094 C-10 26 -10 26 -12.9375 25.4375 C-16.46826343 24.93310522 -17.99735449 25.08164315 -21 27 C-21.66 28.98 -22.32 30.96 -23 33 C-13.76 33 -4.52 33 5 33 C5 25.41 5 17.82 5 10 C16.88 10 28.76 10 41 10 C41 17.59 41 25.18 41 33 C46.61 33 52.22 33 58 33 C58 41.91 58 50.82 58 60 C52.39 60 46.78 60 41 60 C41.11362874 63.93813307 41.24038724 67.87507674 41.375 71.8125 C41.4059375 72.93205078 41.436875 74.05160156 41.46875 75.20507812 C41.50742187 76.27822266 41.54609375 77.35136719 41.5859375 78.45703125 C41.6173584 79.44678955 41.6487793 80.43654785 41.68115234 81.45629883 C41.83773433 84.24075094 41.83773433 84.24075094 44 87 C46.10310382 87.40197129 46.10310382 87.40197129 48.4375 87.25 C49.21996094 87.23453125 50.00242187 87.2190625 50.80859375 87.203125 C53.17681959 87.0673481 53.17681959 87.0673481 56 86 C57.34386556 89.5794717 58.67323814 93.16415713 60 96.75 C60.3815625 97.76578125 60.763125 98.7815625 61.15625 99.828125 C61.5171875 100.8078125 61.878125 101.7875 62.25 102.796875 C62.58515625 103.69760742 62.9203125 104.59833984 63.265625 105.52636719 C64 108 64 108 64 112 C49.86977232 117.50839384 35.24801104 117.87948931 21.05859375 112.2265625 C14.22460146 108.89365351 8.79602695 102.79244095 6.27734375 95.671875 C4.34581475 88.68028413 4.67668823 81.55850295 4.8125 74.375 C4.82758394 72.97527492 4.84126575 71.575534 4.85351562 70.17578125 C4.88860628 66.78368423 4.94240357 63.39178952 5 60 C-3.91 60 -12.82 60 -22 60 C-22 77.82 -22 95.64 -22 114 C-33.88 114 -45.76 114 -58 114 C-58 96.18 -58 78.36 -58 60 C-61.96 60 -65.92 60 -70 60 C-70 51.09 -70 42.18 -70 33 C-66.04 33 -62.08 33 -58 33 C-58.061875 31.88625 -58.12375 30.7725 -58.1875 29.625 C-58.14066697 20.78916832 -55.07501924 13.3767132 -49 7 C-35.49764996 -5.32823264 -16.63344063 -5.29245838 0 0 Z " fill="#FFFFFF" transform="translate(384,70)"/>
<path d="M0 0 C0.25394531 0.74765625 0.50789063 1.4953125 0.76953125 2.265625 C1.11371094 3.25046875 1.45789063 4.2353125 1.8125 5.25 C2.14894531 6.22453125 2.48539062 7.1990625 2.83203125 8.203125 C3.94378127 10.86537588 5.25110146 12.73495089 7 15 C7 15.66 7 16.32 7 17 C4.36 17.66 1.72 18.32 -1 19 C0.31804057 22.95412171 2.74800308 24.13508107 6.125 26.25 C6.75245117 26.64550049 7.37990234 27.04100098 8.02636719 27.44848633 C26.42237914 38.78721054 47.00299237 44.57608827 68 49 C69.16402344 49.24878906 70.32804688 49.49757812 71.52734375 49.75390625 C79.46645339 51.15723465 87.39178858 51.19842137 95.4375 51.25 C96.56438232 51.25942627 97.69126465 51.26885254 98.85229492 51.27856445 C104.62090177 51.25572958 109.56111031 50.97208662 115 49 C112.65448475 46.58933155 110.40844466 44.29805421 107.6875 42.3125 C107.130625 41.879375 106.57375 41.44625 106 41 C106 40.34 106 39.68 106 39 C107.06927734 38.65388672 107.06927734 38.65388672 108.16015625 38.30078125 C114.23459085 36.23236678 118.98690994 34.01047205 124 30 C134.77694117 41.05852396 134.77694117 41.05852396 135.0859375 49.2890625 C134.71030442 55.20034092 132.82986768 59.28895205 128.44750977 63.48730469 C126.60363928 65.06089257 124.72152382 66.56864253 122.8125 68.0625 C122.11125 68.62195313 121.41 69.18140625 120.6875 69.7578125 C114.97388676 74.29419814 109.17223702 78.71620067 103.35864258 83.12329102 C97.81816608 87.33506454 92.41523907 91.69559598 87.03710938 96.11181641 C81.44030322 100.68863093 75.71861384 105.087797 69.93359375 109.42382812 C67.93885271 110.92866701 65.96684362 112.4589179 64 114 C63.29488281 114.5352832 62.58976563 115.07056641 61.86328125 115.62207031 C52.41220721 123.21699534 50.87146253 133.66720145 48.20117188 145 C47.95818359 145.98742187 47.71519531 146.97484375 47.46484375 147.9921875 C47.254646 148.88276855 47.04444824 149.77334961 46.82788086 150.69091797 C45.90412163 153.26741894 45.20932606 154.39589576 43 156 C37.13990666 157.88624623 31.71382875 155.82337239 25.9375 154.375 C24.84888672 154.12621094 23.76027344 153.87742188 22.63867188 153.62109375 C18.20206215 152.52354476 14.80957018 151.63729725 11.19140625 148.7890625 C8.19889289 141.78363778 12.31235616 132.65956583 14.359375 125.68554688 C17.15178234 115.34240591 15.4586754 106.69071911 11.0546875 97.09375 C10.65233383 96.18204544 10.24998016 95.27034088 9.83543396 94.33100891 C8.52979243 91.38064544 7.20248215 88.44059175 5.875 85.5 C4.96723279 83.45740622 4.06124304 81.41402162 3.15698242 79.36987305 C1.32814805 75.23791278 -0.50726631 71.10897655 -2.34716797 66.98193359 C-5.87569317 59.04814072 -9.30531535 51.07262761 -12.71551514 43.08740234 C-13.67196251 40.84886504 -14.63175861 38.61178954 -15.59228516 36.375 C-16.16973845 35.02740463 -16.74705807 33.67975197 -17.32421875 32.33203125 C-17.82010498 31.17421143 -18.31599121 30.0163916 -18.8269043 28.82348633 C-21.52524014 22.32894854 -22.1491776 16.94789038 -19.5625 10.3125 C-15.28925337 3.71817337 -7.7060065 -0.20827045 0 0 Z " fill="#3069FF" transform="translate(460,36)"/>
<path d="M0 0 C1.83667236 0.01027222 1.83667236 0.01027222 3.71044922 0.02075195 C17.29218217 0.26005001 29.49627511 2.35357156 41.3125 9.4375 C39.6972739 15.83687199 37.42725962 21.92506565 34.875 28 C34.58681396 28.71478516 34.29862793 29.42957031 34.00170898 30.16601562 C33.12890625 32.19140625 33.12890625 32.19140625 31.3125 35.4375 C27.3434514 36.99748429 25.08243859 35.7781175 21.25 34.125 C9.50880125 29.38108131 -0.72806846 27.88152608 -12.6875 32.4375 C-12.6875 34.0875 -12.6875 35.7375 -12.6875 37.4375 C-5.35761071 41.0125398 2.41588505 42.35780939 10.35742188 44.01171875 C22.96482611 46.76751605 33.61006406 50.5452779 42.3125 60.4375 C43.84931869 62.84838432 44.50548821 64.63985913 45.3125 67.4375 C45.539375 68.22125 45.76625 69.005 46 69.8125 C47.1307571 79.31085963 46.26726152 88.75723252 40.5625 96.75 C31.12078 108.06159609 18.87380206 112.91771201 4.3125 114.4375 C-10.01753797 115.38614669 -23.81091376 113.98909647 -37.625 110.0625 C-38.67228271 109.7672644 -38.67228271 109.7672644 -39.74072266 109.46606445 C-44.49498111 108.03158009 -48.45274927 106.03245808 -52.6875 103.4375 C-50.69474316 97.09251675 -48.33413574 91.00918083 -45.625 84.9375 C-45.27373047 84.12796875 -44.92246094 83.3184375 -44.56054688 82.484375 C-44.21958984 81.71609375 -43.87863281 80.9478125 -43.52734375 80.15625 C-43.22175537 79.46466797 -42.91616699 78.77308594 -42.60131836 78.06054688 C-41.6875 76.4375 -41.6875 76.4375 -39.6875 75.4375 C-37.55362884 76.28271536 -35.45442851 77.21602061 -33.375 78.1875 C-21.63983775 83.41084806 -7.57564621 87.29915101 5.1875 83.60546875 C7.64657852 82.56703539 7.64657852 82.56703539 8.3125 79.4375 C3.26924953 73.78116005 -5.31764429 72.98679057 -12.40429688 71.34619141 C-26.0266308 68.1726603 -38.7641023 65.08935514 -47.6875 53.4375 C-51.95896015 46.09592787 -51.89107591 36.72230893 -50.6875 28.4375 C-47.45628118 18.10218308 -41.41842915 11.22212315 -32 6.1875 C-21.80728079 1.05509825 -11.26156826 -0.09712267 0 0 Z " fill="#FFFFFF" transform="translate(222.6875,72.5625)"/>
<path d="M0 0 C6.703125 -0.0825 13.40625 -0.165 20.3125 -0.25 C22.40505127 -0.28641602 24.49760254 -0.32283203 26.65356445 -0.36035156 C37.47094868 -0.47014597 47.3742946 -0.40777039 56.4375 6.3125 C62.96802135 13.16158336 64.33036442 19.73728014 64.20703125 28.96484375 C63.64202564 37.24803926 60.05252155 41.60377597 54 47 C53.34 47.66 52.68 48.32 52 49 C52.39380859 49.56509277 52.78761719 50.13018555 53.19335938 50.71240234 C54.9670654 53.26328547 56.73360376 55.81905034 58.5 58.375 C59.12003906 59.26445312 59.74007812 60.15390625 60.37890625 61.0703125 C60.96542969 61.92109375 61.55195312 62.771875 62.15625 63.6484375 C62.70087891 64.43395996 63.24550781 65.21948242 63.80664062 66.02880859 C65 68 65 68 65 70 C45.49313419 71.79920137 45.49313419 71.79920137 39.8984375 67.76171875 C37.90335114 64.9154469 36.38265161 62.18534927 35 59 C33.79886699 56.52147156 32.87895295 55.10000624 31 53 C27.58110166 52.19683023 24.54509603 52.093292 21 52 C21 57.94 21 63.88 21 70 C14.07 70 7.14 70 0 70 C0 46.9 0 23.8 0 0 Z M21 16 C21 22.6 21 29.2 21 36 C31.47489791 36.55510967 31.47489791 36.55510967 41 33 C43.45121397 29.32317905 43.82418762 26.27079037 43 22 C40.31182341 18.49043612 38.32220558 16.7203676 34 16 C31.75092848 15.93209325 29.49998395 15.91500016 27.25 15.9375 C24.15625 15.9684375 24.15625 15.9684375 21 16 Z " fill="#3169FF" transform="translate(0,114)"/>
<path d="M0 0 C18.48 0 36.96 0 56 0 C56 5.28 56 10.56 56 16 C44.45 16 32.9 16 21 16 C21 19.63 21 23.26 21 27 C31.23 27 41.46 27 52 27 C52 31.95 52 36.9 52 42 C41.77 42 31.54 42 21 42 C21 45.96 21 49.92 21 54 C32.88 54 44.76 54 57 54 C57 59.28 57 64.56 57 70 C38.19 70 19.38 70 0 70 C0 46.9 0 23.8 0 0 Z " fill="#3069FF" transform="translate(74,114)"/>
<path d="M0 0 C11.88 0 23.76 0 36 0 C36 28.05 36 56.1 36 85 C24.12 85 12.24 85 0 85 C0 56.95 0 28.9 0 0 Z " fill="#FFFFFF" transform="translate(274,99)"/>
<path d="M0 0 C6.93 0 13.86 0 21 0 C21 23.1 21 46.2 21 70 C14.07 70 7.14 70 0 70 C0 46.9 0 23.8 0 0 Z " fill="#316AFF" transform="translate(141,114)"/>
<path d="M0 0 C7.02949118 -0.30351862 12.92610271 1.20706408 18.88671875 4.96484375 C22.81723937 9.01096791 24.19409852 12.57473183 24.38671875 18.15234375 C24.19122025 23.37606355 23.15020453 26.90585364 19.46484375 30.77734375 C13.40847026 36.35135121 7.8874344 37.57185562 -0.23828125 37.40625 C-6.42658082 36.83488711 -11.56683325 34.57379175 -15.98828125 30.15234375 C-19.71174669 24.88813399 -19.7755826 19.3693096 -18.98828125 13.15234375 C-17.35203546 7.64673686 -13.81979276 4.82982263 -8.92578125 2.0859375 C-5.88205421 0.6193029 -3.33285588 0.25536617 0 0 Z " fill="#FFFFFF" transform="translate(289.98828125,55.84765625)"/>
<path d="M0 0 C4.24334986 2.2279898 6.70983704 5.07002237 8.79296875 9.31640625 C10.23082453 14.66126324 10.14829616 19.35198204 7.953125 24.45703125 C5.52492602 28.34869022 1.87351635 31.27613245 -2.20703125 33.31640625 C-8.41874495 33.84419892 -13.96538025 34.06044268 -19.20703125 30.31640625 C-23.44116614 26.09380851 -25.34648683 22.50094116 -25.45703125 16.50390625 C-25.38185215 11.33158389 -24.56301202 7.62840872 -20.7421875 3.87890625 C-14.6630851 -1.35298628 -7.79241048 -2.41357847 0 0 Z " fill="#3069FF" transform="translate(544.20703125,0.68359375)"/>
<path d="M0 0 C3.54720305 4.03647244 4.29765314 7.56612962 4.21875 12.94140625 C3.77484255 17.11889245 1.76437252 20.05112377 -0.8125 23.25 C-4.81731687 26.4538535 -8.46876184 27.22169036 -13.5 26.875 C-17.8210525 26.24939307 -20.64267947 24.87770331 -24 22 C-27.9077002 16.58144675 -27.78849266 11.46563982 -27 5 C-24.85663519 0.47511873 -22.53418303 -1.89879323 -18 -4 C-11.12673612 -6.17050438 -5.51022422 -4.3831329 0 0 Z " fill="#3069FF" transform="translate(495,26)"/>
<path d="M0 0 C3.76591285 3.2279253 4.48938813 4.75826939 4.9375 9.6875 C4.52666309 14.37104074 3.15907662 16.76882258 -0.1875 20 C-3.05650679 21.63943245 -5.05974941 22.11999017 -8.375 22.25 C-12.63116474 21.00250344 -14.86241369 19.8283025 -17.8125 16.5 C-19.66587919 12.64497128 -19.97927117 10.47989818 -19.375 6.25 C-17.76179279 3.19642921 -16.34439098 1.01166434 -13.625 -1.125 C-8.40862133 -2.57399408 -4.72603481 -2.45053657 0 0 Z " fill="#306AFF" transform="translate(573.375,46.75)"/>
<path d="M0 0 C3.51578585 1.37574229 4.71719707 2.59464913 6.875 5.6875 C8.28904196 9.85106799 8.24490411 12.8070938 7 17 C5.00128105 20.67764287 3.09375035 22.24333807 -0.8125 23.5 C-5.27221818 24.37201193 -8.08172274 23.33589606 -12 21 C-14.42058911 18.82767644 -15.76508504 17.31605766 -16.34375 14.07421875 C-16.59415006 8.53411737 -15.07548274 5.31496152 -11.375 1.1875 C-7.64480993 -0.67759504 -4.08572861 -0.52624769 0 0 Z " fill="#3169FF" transform="translate(528,42)"/>
<path d="M0 0 C2.93052231 1.99524923 4.64521503 3.42836485 5.4453125 6.97265625 C5.63624174 10.37756097 5.2680298 12.5979553 3.375 15.4375 C0.41303588 17.3861606 -1.44757366 17.92895147 -5 18 C-10.61176471 15.77647059 -10.61176471 15.77647059 -12 13 C-12.68839635 6.00130378 -12.68839635 6.00130378 -9.9375 2 C-6.22192774 -0.52975133 -4.4117517 -0.7878128 0 0 Z " fill="#3069FF" transform="translate(486,195)"/>
<path d="M0 0 C2.15502531 3.23253796 2.46856135 4.25150923 2 8 C0.875 9.8125 0.875 9.8125 -1 11 C-4.14924548 11.39365568 -6.11909116 11.52854531 -8.875 9.875 C-10.54663625 7.08893958 -10.46376624 5.18011138 -10 2 C-6.96457461 -1.61916104 -4.32701626 -1.31691799 0 0 Z " fill="#3069FF" transform="translate(472,215)"/>
</svg>
