<?xml version="1.0" encoding="UTF-8"?>
<svg version="1.1" xmlns="http://www.w3.org/2000/svg" width="300" height="300">
<path d="M0 0 C6.30525665 3.64715826 11.97290693 8.37243627 17.69921875 12.8515625 C21.89706681 16.1194788 26.19829369 19.20930168 30.5625 22.25 C39.07589693 28.19687986 47.43230219 34.34376307 55.77587891 40.52587891 C59.7637919 43.4802773 63.75600755 46.42882685 67.75 49.375 C68.53616699 49.95491699 69.32233398 50.53483398 70.13232422 51.13232422 C76.19219632 55.59519482 82.28881179 60.00537554 88.39624023 64.40283203 C94.05952071 68.48547393 99.69271263 72.60771542 105.3125 76.75 C106.08207031 77.3171875 106.85164062 77.884375 107.64453125 78.46875 C109.11196435 79.55203831 110.57745241 80.63796746 112.04077148 81.72680664 C113.5098867 82.81197704 114.98915512 83.88349867 116.47680664 84.94311523 C117.19989014 85.46462158 117.92297363 85.98612793 118.66796875 86.5234375 C119.31660889 86.98411621 119.96524902 87.44479492 120.63354492 87.91943359 C122.1875 89.3125 122.1875 89.3125 123.375 92.5 C123.1875 95.3125 123.1875 95.3125 121.90234375 96.9453125 C114.86202037 102.55832658 96.07675906 99.71337164 87.375 98.75 C80.3701294 97.52414765 75.05042561 94.18471877 69.1875 90.3125 C67.70928899 89.43588649 66.23024338 88.56067728 64.75 87.6875 C61.43645108 85.60043851 58.96004908 83.08504908 56.1875 80.3125 C50.34434131 75.88676531 50.34434131 75.88676531 44.0078125 72.2421875 C41.83799487 71.13399738 40.54260556 69.56903629 38.890625 67.8125 C35.73126684 65.02994602 32.0247637 63.01211153 28.41796875 60.86328125 C27.68191406 60.35152344 26.94585937 59.83976562 26.1875 59.3125 C26.1875 58.6525 26.1875 57.9925 26.1875 57.3125 C25.1975 57.3125 24.2075 57.3125 23.1875 57.3125 C21.71508789 55.97949219 21.71508789 55.97949219 20.1875 54.3125 C19.05698793 53.40086684 17.9086253 52.51105762 16.74609375 51.640625 C16.08464355 51.14433594 15.42319336 50.64804688 14.74169922 50.13671875 C13.69393311 49.35748047 13.69393311 49.35748047 12.625 48.5625 C11.55016357 47.76005859 11.55016357 47.76005859 10.45361328 46.94140625 C3.16824083 41.52125976 -4.25072768 36.3392369 -11.8125 31.3125 C-30.55260467 44.65955204 -49.15084585 58.18973824 -67.63671875 71.88671875 C-72.35102087 75.37702356 -77.07843678 78.84905975 -81.8125 82.3125 C-82.58996582 82.88371582 -83.36743164 83.45493164 -84.16845703 84.04345703 C-86.4383805 85.70591614 -88.7175505 87.35479543 -91 89 C-92.00571045 89.73984131 -92.00571045 89.73984131 -93.03173828 90.49462891 C-107.53329036 100.85391855 -125.76280511 99.62694109 -142.8125 99.3125 C-143.1425 98.3225 -143.4725 97.3325 -143.8125 96.3125 C-144.4725 96.3125 -145.1325 96.3125 -145.8125 96.3125 C-146.3359375 93.2265625 -146.3359375 93.2265625 -145.8125 89.3125 C-143.39546084 86.58838449 -140.4531356 84.70179589 -137.4375 82.6875 C-136.57769531 82.08486328 -135.71789062 81.48222656 -134.83203125 80.86132812 C-133.04299232 79.60795312 -131.24762946 78.36355988 -129.44628906 77.12792969 C-125.52035497 74.4218446 -121.66936835 71.61565902 -117.8125 68.8125 C-116.32182975 67.73798268 -114.83094279 66.66376595 -113.33984375 65.58984375 C-105.45209952 59.8926642 -97.6372306 54.09571915 -89.8125 48.3125 C-79.77829178 40.89626702 -69.72730543 33.50784206 -59.59936523 26.2199707 C-53.97354448 22.16624298 -48.38845177 18.05947496 -42.8125 13.9375 C-32.3274421 6.2018948 -32.3274421 6.2018948 -27.9375 3.0625 C-26.88949219 2.31226563 -26.88949219 2.31226563 -25.8203125 1.546875 C-18.29821462 -3.07760541 -8.09401191 -3.64369608 0 0 Z " fill="#108687" transform="translate(161.8125,20.6875)"/>
<path d="M0 0 C1.69865456 -0.00065712 1.69865456 -0.00065712 3.43162537 -0.00132751 C7.15975423 0.0007558 10.88742859 0.02406613 14.61547852 0.04760742 C17.20622004 0.05320498 19.79696474 0.05747432 22.38771057 0.06047058 C28.50035892 0.07073898 34.61282082 0.09436237 40.72539908 0.12451905 C47.68792111 0.15811905 54.65045113 0.17456309 61.61303413 0.18960536 C75.92775217 0.2209138 90.2422795 0.27590325 104.55688477 0.34057617 C104.55688477 9.58057617 104.55688477 18.82057617 104.55688477 28.34057617 C101.37141235 29.13694428 99.33785756 29.45768441 96.16558838 29.42286682 C94.85735359 29.41230759 94.85735359 29.41230759 93.52268982 29.40153503 C92.57394485 29.38858902 91.62519989 29.37564301 90.64770508 29.36230469 C89.13990227 29.34789337 89.13990227 29.34789337 87.60163879 29.33319092 C84.27935762 29.30021208 80.95720839 29.2598753 77.63500977 29.21948242 C75.33144597 29.19518023 73.0278773 29.17133672 70.7243042 29.14793396 C64.66125936 29.08510298 58.59830094 29.01603342 52.53533936 28.94567871 C46.34855078 28.87498645 40.16170093 28.8101748 33.97485352 28.74487305 C21.83546326 28.61587338 9.69615616 28.48028511 -2.44311523 28.34057617 C-2.44034986 28.88502821 -2.43758448 29.42948025 -2.4347353 29.99043083 C-2.36853681 43.22658795 -2.31905602 56.46271615 -2.28767872 69.69900322 C-2.27199659 76.09993516 -2.25071184 82.50074797 -2.21679688 88.90161133 C-2.18429432 95.07426251 -2.16628143 101.24679883 -2.15848351 107.41952896 C-2.1529236 109.77915379 -2.14206711 112.13877207 -2.12592506 114.49834824 C-2.10427198 117.79339123 -2.10114324 121.08795441 -2.10253906 124.38305664 C-2.09175323 125.36704437 -2.08096741 126.3510321 -2.06985474 127.36483765 C-2.07604073 128.70681213 -2.07604073 128.70681213 -2.08235168 130.07589722 C-2.07958631 130.85573408 -2.07682093 131.63557095 -2.07397175 132.43903923 C-2.1957891 133.06654642 -2.31760645 133.69405361 -2.44311523 134.34057617 C-5.44311523 136.34057617 -5.44311523 136.34057617 -7.71264648 136.02026367 C-16.67691393 133.18364448 -23.0436993 129.15232764 -28.44311523 121.34057617 C-32.92970348 111.57044364 -31.81806412 100.18502976 -31.69311523 89.71166992 C-31.67773886 87.71111021 -31.66302054 85.71054535 -31.64892578 83.7099762 C-31.61555946 79.53335663 -31.57013508 75.35707494 -31.5168457 71.18066406 C-31.45037423 65.84930605 -31.42044735 60.51844468 -31.40036011 55.18673611 C-31.37965832 51.06077939 -31.33626443 46.93528672 -31.28649902 42.80958748 C-31.2660862 40.84461981 -31.25333625 38.87955597 -31.24865723 36.91448784 C-31.17613847 15.49243835 -31.17613847 15.49243835 -23.68847656 7.45774841 C-16.60116287 0.65775284 -9.42522246 -0.09594811 0 0 Z " fill="#0C8485" transform="translate(37.443115234375,144.659423828125)"/>
<path d="M0 0 C17.32377352 -0.0233285 34.64754216 -0.04097893 51.97132778 -0.05181217 C60.01450054 -0.05697523 68.05766357 -0.06401812 76.10083008 -0.07543945 C83.1087296 -0.08538598 90.11662208 -0.09185335 97.12452847 -0.09408849 C100.83743192 -0.09539566 104.5503152 -0.09848184 108.2632122 -0.10573006 C112.40131411 -0.11374332 116.53938061 -0.11399116 120.67749023 -0.11352539 C121.91754318 -0.11712067 123.15759613 -0.12071594 124.43522644 -0.12442017 C125.55568359 -0.1230455 126.67614075 -0.12167084 127.83055115 -0.12025452 C128.81041709 -0.12117631 129.79028303 -0.1220981 130.79984188 -0.12304783 C133 0 133 0 134 1 C134.09971786 2.91458282 134.13080589 4.83282317 134.1328125 6.75 C134.13410156 7.9153125 134.13539063 9.080625 134.13671875 10.28125 C134.13285156 11.5084375 134.12898437 12.735625 134.125 14 C134.12886719 15.2271875 134.13273438 16.454375 134.13671875 17.71875 C134.13478516 19.46671875 134.13478516 19.46671875 134.1328125 21.25 C134.13168457 22.32765625 134.13055664 23.4053125 134.12939453 24.515625 C134 27 134 27 133 28 C131.28377391 28.10278078 129.56330242 28.13520862 127.8440094 28.14044189 C126.72644257 28.14615204 125.60887573 28.15186218 124.45744324 28.15774536 C122.60207695 28.15942215 122.60207695 28.15942215 120.70922852 28.16113281 C118.76799103 28.16858017 118.76799103 28.16858017 116.78753662 28.17617798 C113.22765825 28.18932474 109.66779877 28.19575123 106.1078999 28.20018864 C103.88619496 28.2031154 101.66449522 28.20721941 99.44279289 28.21169281 C92.49842113 28.22537307 85.55406121 28.23503742 78.6096769 28.2388947 C70.5805509 28.24337844 62.55159489 28.26093861 54.5225206 28.2898953 C48.32464004 28.31147565 42.12680744 28.321597 35.92888969 28.32293582 C32.22317764 28.32398638 28.51762525 28.32994715 24.81195259 28.34775543 C20.68125125 28.36721952 16.550908 28.36296179 12.42016602 28.35644531 C11.18527939 28.3656601 9.95039276 28.37487488 8.67808533 28.3843689 C7.55769867 28.37879974 6.43731201 28.37323059 5.28297424 28.36749268 C4.30532891 28.36895924 3.32768358 28.3704258 2.32041264 28.3719368 C1.55467647 28.24919765 0.7889403 28.12645851 0 28 C-2.09386303 24.85920546 -2.25539434 24.09219864 -2.265625 20.5078125 C-2.26820313 19.63769531 -2.27078125 18.76757812 -2.2734375 17.87109375 C-2.26570312 16.96488281 -2.25796875 16.05867188 -2.25 15.125 C-2.25773438 14.22652344 -2.26546875 13.32804688 -2.2734375 12.40234375 C-2.27085937 11.52964844 -2.26828125 10.65695313 -2.265625 9.7578125 C-2.26336914 8.9652002 -2.26111328 8.17258789 -2.25878906 7.35595703 C-1.96030772 4.63865051 -1.05035175 2.51184528 0 0 Z " fill="#007F80" transform="translate(159,198)"/>
<path d="M0 0 C2.55877474 0.00866361 5.11755915 0.01480412 7.67634583 0.01853943 C13.01474426 0.03220307 18.35252414 0.06407736 23.69067383 0.11352539 C31.228041 0.1832981 38.76517766 0.21234516 46.30281484 0.23392594 C52.16024459 0.25218827 58.01762465 0.28177512 63.875 0.3125 C65.12753256 0.3189258 66.38006512 0.3253516 67.67055321 0.33197212 C71.18954377 0.35283909 74.70838283 0.38112694 78.22729492 0.41235352 C79.28018204 0.41818451 80.33306915 0.4240155 81.41786194 0.43002319 C82.3695224 0.44006882 83.32118286 0.45011444 84.30168152 0.46046448 C85.54899441 0.47077116 85.54899441 0.47077116 86.82150555 0.48128605 C88.70703125 0.62109375 88.70703125 0.62109375 89.70703125 1.62109375 C89.70703125 10.53109375 89.70703125 19.44109375 89.70703125 28.62109375 C45.15703125 28.62109375 0.60703125 28.62109375 -45.29296875 28.62109375 C-46.70964964 25.78773198 -45.83959904 24.31758562 -44.98046875 21.30859375 C-44.71621094 20.36371094 -44.45195312 19.41882813 -44.1796875 18.4453125 C-43.34047004 15.77238639 -42.37106473 13.2056994 -41.29296875 10.62109375 C-40.63296875 10.62109375 -39.97296875 10.62109375 -39.29296875 10.62109375 C-39.21911453 10.02732437 -39.14526031 9.43355499 -39.06916809 8.8217926 C-37.98898851 5.75924174 -36.67113104 5.04280672 -33.8737793 3.40991211 C-23.35933097 -1.49989499 -11.34011869 -0.13235378 0 0 Z " fill="#007F80" transform="translate(203.29296875,144.37890625)"/>
<path d="M0 0 C2.32041264 -0.3719368 2.32041264 -0.3719368 5.28297424 -0.36749268 C6.4033609 -0.37306183 7.52374756 -0.37863098 8.67808533 -0.3843689 C10.53041527 -0.37054672 10.53041527 -0.37054672 12.42016602 -0.35644531 C13.71607666 -0.35848969 15.0119873 -0.36053406 16.34716797 -0.36264038 C19.90703196 -0.367784 23.46660796 -0.35422073 27.0264256 -0.33711338 C30.74555093 -0.32210588 34.46467209 -0.32325211 38.18382263 -0.32244873 C44.42915786 -0.31875368 50.67438335 -0.30377352 56.91967773 -0.28125 C64.94591684 -0.25236327 72.97206757 -0.24202613 80.998353 -0.2375679 C87.88681016 -0.23359311 94.77524795 -0.22109091 101.66369128 -0.20722103 C103.88390798 -0.20311575 106.104124 -0.20019334 108.32434273 -0.19742584 C112.45267316 -0.19163915 116.58092443 -0.17697062 120.70922852 -0.16113281 C121.94613937 -0.16001495 123.18305023 -0.15889709 124.45744324 -0.15774536 C125.57501007 -0.15203522 126.6925769 -0.14632507 127.8440094 -0.14044189 C129.30991186 -0.1359799 129.30991186 -0.1359799 130.8054285 -0.13142776 C133 0 133 0 134 1 C134.09971786 2.91458282 134.13080589 4.83282317 134.1328125 6.75 C134.13410156 7.9153125 134.13539063 9.080625 134.13671875 10.28125 C134.13285156 11.5084375 134.12898437 12.735625 134.125 14 C134.12886719 15.2271875 134.13273438 16.454375 134.13671875 17.71875 C134.13478516 19.46671875 134.13478516 19.46671875 134.1328125 21.25 C134.13168457 22.32765625 134.13055664 23.4053125 134.12939453 24.515625 C134 27 134 27 133 28 C131.59378123 28.11621769 130.18187382 28.16452264 128.77101135 28.18513489 C127.40229134 28.20848907 127.40229134 28.20848907 126.00592041 28.23231506 C124.9966449 28.24435471 123.98736938 28.25639435 122.94750977 28.26879883 C121.89053391 28.2851236 120.83355804 28.30144836 119.74455261 28.31826782 C116.22689181 28.37051724 112.70919885 28.41462367 109.19140625 28.45703125 C107.99122297 28.47213934 106.7910397 28.48724743 105.55448723 28.50281334 C99.19531774 28.58207592 92.83610895 28.65468683 86.47680664 28.72241211 C79.91627009 28.79369918 73.35630365 28.88870305 66.79615879 28.98918629 C61.74750998 29.06199987 56.69877884 29.11655039 51.64985466 29.16626549 C49.23257725 29.19329334 46.8153665 29.22722416 44.39828682 29.26828957 C41.00443211 29.32429309 37.61125335 29.35424366 34.21704102 29.37817383 C33.22598358 29.40033463 32.23492615 29.42249542 31.21383667 29.44532776 C24.3317865 29.45611716 19.21568437 27.85845812 13 25 C12.01 24.67 11.02 24.34 10 24 C4.28411575 18.2976605 -0.03516584 10.8358057 -2 3 C-1.34 2.01 -0.68 1.02 0 0 Z " fill="#018081" transform="translate(159,252)"/>
<path d="M0 0 C17.32377352 -0.0233285 34.64754216 -0.04097893 51.97132778 -0.05181217 C60.01450054 -0.05697523 68.05766357 -0.06401812 76.10083008 -0.07543945 C83.1087296 -0.08538598 90.11662208 -0.09185335 97.12452847 -0.09408849 C100.83743192 -0.09539566 104.5503152 -0.09848184 108.2632122 -0.10573006 C112.40131411 -0.11374332 116.53938061 -0.11399116 120.67749023 -0.11352539 C121.91754318 -0.11712067 123.15759613 -0.12071594 124.43522644 -0.12442017 C125.55568359 -0.1230455 126.67614075 -0.12167084 127.83055115 -0.12025452 C128.81041709 -0.12117631 129.79028303 -0.1220981 130.79984188 -0.12304783 C133 0 133 0 134 1 C134.09971786 2.91458282 134.13080589 4.83282317 134.1328125 6.75 C134.13410156 7.9153125 134.13539063 9.080625 134.13671875 10.28125 C134.13285156 11.5084375 134.12898437 12.735625 134.125 14 C134.12886719 15.2271875 134.13273438 16.454375 134.13671875 17.71875 C134.13478516 19.46671875 134.13478516 19.46671875 134.1328125 21.25 C134.13168457 22.32765625 134.13055664 23.4053125 134.12939453 24.515625 C134 27 134 27 133 28 C131.5709839 28.10763675 130.13673874 28.1468064 128.70372009 28.15821838 C127.77678848 28.1680072 126.84985687 28.17779602 125.89483643 28.18788147 C124.86985046 28.19363693 123.8448645 28.1993924 122.78881836 28.20532227 C121.17926018 28.22017166 121.17926018 28.22017166 119.53718567 28.23532104 C115.97142788 28.26704374 112.40565675 28.29173588 108.83984375 28.31640625 C106.37504215 28.33696649 103.91024414 28.3579627 101.44544983 28.37937927 C94.94350085 28.43469605 88.44151954 28.48406282 81.93951416 28.53222656 C75.31055451 28.5818404 68.6816489 28.63809412 62.05273438 28.69335938 C49.0351968 28.80105837 36.01761899 28.90266631 23 29 C22.67 28.01 22.34 27.02 22 26 C58.3 26 94.6 26 132 26 C132 18.08 132 10.16 132 2 C88.77 2 45.54 2 1 2 C0.67 2.66 0.34 3.32 0 4 C0 2.68 0 1.36 0 0 Z " fill="#3E9393" transform="translate(159,252)"/>
<path d="M0 0 C17.32377352 -0.0233285 34.64754216 -0.04097893 51.97132778 -0.05181217 C60.01450054 -0.05697523 68.05766357 -0.06401812 76.10083008 -0.07543945 C83.1087296 -0.08538598 90.11662208 -0.09185335 97.12452847 -0.09408849 C100.83743192 -0.09539566 104.5503152 -0.09848184 108.2632122 -0.10573006 C112.40131411 -0.11374332 116.53938061 -0.11399116 120.67749023 -0.11352539 C121.91754318 -0.11712067 123.15759613 -0.12071594 124.43522644 -0.12442017 C125.55568359 -0.1230455 126.67614075 -0.12167084 127.83055115 -0.12025452 C128.81041709 -0.12117631 129.79028303 -0.1220981 130.79984188 -0.12304783 C133 0 133 0 134 1 C134.09971786 2.91458282 134.13080589 4.83282317 134.1328125 6.75 C134.13410156 7.9153125 134.13539063 9.080625 134.13671875 10.28125 C134.13285156 11.5084375 134.12898437 12.735625 134.125 14 C134.12886719 15.2271875 134.13273438 16.454375 134.13671875 17.71875 C134.13478516 19.46671875 134.13478516 19.46671875 134.1328125 21.25 C134.13168457 22.32765625 134.13055664 23.4053125 134.12939453 24.515625 C134 27 134 27 133 28 C131.28377391 28.10278078 129.56330242 28.13520862 127.8440094 28.14044189 C126.72644257 28.14615204 125.60887573 28.15186218 124.45744324 28.15774536 C122.60207695 28.15942215 122.60207695 28.15942215 120.70922852 28.16113281 C118.76799103 28.16858017 118.76799103 28.16858017 116.78753662 28.17617798 C113.22765825 28.18932474 109.66779877 28.19575123 106.1078999 28.20018864 C103.88619496 28.2031154 101.66449522 28.20721941 99.44279289 28.21169281 C92.49842113 28.22537307 85.55406121 28.23503742 78.6096769 28.2388947 C70.5805509 28.24337844 62.55159489 28.26093861 54.5225206 28.2898953 C48.32464004 28.31147565 42.12680744 28.321597 35.92888969 28.32293582 C32.22317764 28.32398638 28.51762525 28.32994715 24.81195259 28.34775543 C20.68125125 28.36721952 16.550908 28.36296179 12.42016602 28.35644531 C11.18527939 28.3656601 9.95039276 28.37487488 8.67808533 28.3843689 C7.55769867 28.37879974 6.43731201 28.37323059 5.28297424 28.36749268 C4.30532891 28.36895924 3.32768358 28.3704258 2.32041264 28.3719368 C1.55467647 28.24919765 0.7889403 28.12645851 0 28 C-2.09386303 24.85920546 -2.25539434 24.09219864 -2.265625 20.5078125 C-2.26820313 19.63769531 -2.27078125 18.76757812 -2.2734375 17.87109375 C-2.26570312 16.96488281 -2.25796875 16.05867188 -2.25 15.125 C-2.25773438 14.22652344 -2.26546875 13.32804688 -2.2734375 12.40234375 C-2.27085937 11.52964844 -2.26828125 10.65695313 -2.265625 9.7578125 C-2.26336914 8.9652002 -2.26111328 8.17258789 -2.25878906 7.35595703 C-1.96030772 4.63865051 -1.05035175 2.51184528 0 0 Z M1 1 C1 9.25 1 17.5 1 26 C44.23 26 87.46 26 132 26 C132 17.75 132 9.5 132 1 C88.77 1 45.54 1 1 1 Z " fill="#5AA6A6" transform="translate(159,198)"/>
<path d="M0 0 C14.97686306 -0.02332977 29.95372472 -0.04097956 44.93060207 -0.05181217 C51.88416081 -0.05697496 58.83770827 -0.06401734 65.79125977 -0.07543945 C72.49557209 -0.08644694 79.19987025 -0.09227621 85.90419197 -0.09487724 C88.46837613 -0.09673202 91.03255962 -0.10035364 93.59673882 -0.10573006 C97.17445158 -0.11293659 100.75211519 -0.11399111 104.32983398 -0.11352539 C105.40157364 -0.11712067 106.47331329 -0.12071594 107.57752991 -0.12442017 C108.54653229 -0.1230455 109.51553467 -0.12167084 110.51390076 -0.12025452 C111.36102851 -0.12117631 112.20815626 -0.1220981 113.08095455 -0.12304783 C115 0 115 0 116 1 C116 9.91 116 18.82 116 28 C71.45 28 26.9 28 -19 28 C-20.33332095 25.3333581 -19.67102033 23.83319697 -19 21 C-18.67 21 -18.34 21 -18 21 C-17.67 22.65 -17.34 24.3 -17 26 C26.23 26 69.46 26 114 26 C114 17.75 114 9.5 114 1 C76.38 1 38.76 1 0 1 C0 0.67 0 0.34 0 0 Z " fill="#65B0B0" transform="translate(177,145)"/>
<path d="M0 0 C4.12764916 1.81366403 7.62059205 4.49146618 11.25 7.125 C11.8996875 7.59292969 12.549375 8.06085937 13.21875 8.54296875 C14.81435483 9.69274282 16.40743025 10.84602566 18 12 C17.01 12.495 17.01 12.495 16 13 C11.18047418 11.26582183 6.72677239 8.49384912 3 5 C3 4.34 3 3.68 3 3 C1.68 2.67 0.36 2.34 -1 2 C-0.67 1.34 -0.34 0.68 0 0 Z " fill="#77B4B5" transform="translate(165,24)"/>
<path d="M0 0 C-1.423125 0.61875 -1.423125 0.61875 -2.875 1.25 C-6.19247958 3.10778857 -6.56194068 3.71300726 -8 7 C-10.36451679 9.05941785 -11.9962485 9.9987495 -15 11 C-15 10.01 -15 9.02 -15 8 C-14.34 8 -13.68 8 -13 8 C-12.92523438 7.39800781 -12.85046875 6.79601562 -12.7734375 6.17578125 C-11.72391526 3.22333738 -10.35129911 2.64770227 -7.625 1.1875 C-6.83351562 0.74792969 -6.04203125 0.30835938 -5.2265625 -0.14453125 C-3 -1 -3 -1 0 0 Z " fill="#8BC2C2" transform="translate(177,147)"/>
<path d="M0 0 C0.66 0.33 1.32 0.66 2 1 C-0.62648392 5.97649586 -3.58739614 9.19579871 -9 11 C-7.59928507 5.70841026 -4.14512755 3.22521956 0 0 Z " fill="#6CB1B1" transform="translate(19,148)"/>
<path d="M0 0 C3.58513106 1.62184501 6.58992323 3.79256239 9.75 6.125 C11.22726562 7.21167969 11.22726562 7.21167969 12.734375 8.3203125 C13.48203125 8.87460938 14.2296875 9.42890625 15 10 C10.19784004 10 6.57030218 8.17360194 3 5 C3 4.34 3 3.68 3 3 C1.68 2.67 0.36 2.34 -1 2 C-0.67 1.34 -0.34 0.68 0 0 Z " fill="#7CB7B8" transform="translate(258,92)"/>
<path d="M0 0 C5.20028252 1.68244434 9.54520192 4.55329414 12.375 9.3125 C12.58125 9.869375 12.7875 10.42625 13 11 C6.72092936 9.77481548 3.66083188 5.92804292 0 1 C0 0.67 0 0.34 0 0 Z " fill="#70B0B0" transform="translate(216,97)"/>
<path d="M0 0 C3.37471011 1.44630433 5.78192764 3.04257018 8 6 C7.75 9.25 7.75 9.25 7 12 C6.34 12 5.68 12 5 12 C5 9.69 5 7.38 5 5 C3.02 4.01 1.04 3.02 -1 2 C-0.67 1.34 -0.34 0.68 0 0 Z " fill="#89C0C0" transform="translate(277,106)"/>
<path d="M0 0 C4.31320068 1.75722991 7.9031084 4.8062168 10 9 C6.41213553 7.34406255 3.16216412 5.37162309 0 3 C0 2.01 0 1.02 0 0 Z " fill="#7DB7B7" transform="translate(152,50)"/>
<path d="M0 0 C4.83766699 0.41465717 6.85646376 2.4198615 10 6 C10.33 6.66 10.66 7.32 11 8 C9.66666667 7.33333333 8.33333333 6.66666667 7 6 C5.948125 5.525625 4.89625 5.05125 3.8125 4.5625 C1 3 1 3 0 0 Z " fill="#86BDBD" transform="translate(203,89)"/>
<path d="M0 0 C1.32 0.33 2.64 0.66 4 1 C3.34 2.65 2.68 4.3 2 6 C2.66 6.33 3.32 6.66 4 7 C2.68 7 1.36 7 0 7 C0 4.69 0 2.38 0 0 Z " fill="#539E9E" transform="translate(16,110)"/>
</svg>
