<?xml version="1.0" encoding="UTF-8"?>
<svg version="1.1" xmlns="http://www.w3.org/2000/svg" width="400" height="400">
<path d="M0 0 C132 0 264 0 400 0 C400 132 400 264 400 400 C268 400 136 400 0 400 C0 268 0 136 0 0 Z " fill="#292A2C" transform="translate(0,0)"/>
<path d="M0 0 C3.0625 1.73046875 3.0625 1.73046875 6 4.1875 C6.54269531 4.6309375 7.08539063 5.074375 7.64453125 5.53125 C8.82056016 6.49490348 9.98963211 7.46709696 11.15234375 8.44677734 C13.7282394 10.61219068 16.34445152 12.72650441 18.95898438 14.8449707 C20.32694653 15.95423092 21.69281464 17.06607825 23.05664062 18.18041992 C28.18446504 22.36736476 33.40699921 26.40447353 38.671875 30.41796875 C42.42704174 33.30647186 46.08591965 36.30988469 49.75 39.3125 C55.31045247 43.86861799 60.954066 48.28880026 66.6875 52.625 C72.38040455 56.93331804 77.90558157 61.37150124 83.3112793 66.03417969 C88.09306754 70.13953455 93.07809156 73.93837344 98.125 77.7109375 C105.55880521 83.62970089 105.55880521 83.62970089 106.6640625 87.0625 C106.65117187 87.701875 106.63828125 88.34125 106.625 89 C106.63789063 89.639375 106.65078125 90.27875 106.6640625 90.9375 C103.43151667 100.97740706 84.98232946 111.2012424 76.63232422 117.72460938 C67.93855151 124.43852772 67.93855151 124.43852772 60 132 C60.56460938 132.25265625 61.12921875 132.5053125 61.7109375 132.765625 C64.32029492 134.17271876 66.35867419 135.83621376 68.625 137.75 C73.66941154 141.94240638 78.81116127 145.98799464 84 150 C105.71409776 166.8353116 105.71409776 166.8353116 106.4375 172.3125 C105.79616077 177.71807349 103.18428317 180.17897775 99.19140625 183.5078125 C97.72869673 184.65254169 96.25337933 185.78124508 94.76953125 186.8984375 C91.40037609 189.45500376 88.10780451 192.09936495 84.8125 194.75 C79.91939573 198.67659536 75.00531002 202.5736994 70.0625 206.4375 C64.99481574 210.40195134 59.98541584 214.43265139 55 218.5 C47.17647251 224.88143722 39.249282 231.12198902 31.29101562 237.33398438 C23.53625975 243.39100578 15.85008971 249.52201577 8.24072266 255.76123047 C7.60054199 256.28475098 6.96036133 256.80827148 6.30078125 257.34765625 C5.73528564 257.81179932 5.16979004 258.27594238 4.5871582 258.75415039 C1.47584291 261.1963965 -0.82916504 262.71507614 -4.8828125 262.546875 C-9.99298923 261.22690315 -13.98987017 257.28205601 -18 254 C-18.6379248 253.48002441 -19.27584961 252.96004883 -19.93310547 252.42431641 C-23.53908151 249.47723114 -27.12842663 246.510698 -30.7109375 243.53515625 C-35.69289158 239.4095802 -40.7760977 235.42064205 -45.875 231.44140625 C-50.82420951 227.57483632 -55.72178113 223.64404554 -60.61035156 219.70117188 C-67.87358606 213.84333048 -75.1864753 208.0716301 -82.625 202.4375 C-88.4540124 198.01958336 -94.1158114 193.46377522 -99.65600586 188.68920898 C-103.15479494 185.68039614 -106.73613454 182.87055219 -110.51171875 180.21875 C-113.28817416 177.94511722 -113.98276119 176.13298508 -114.4375 172.625 C-113.44731162 164.42058203 -102.28125832 158.07109325 -96 153 C-91.70056786 149.63179509 -87.34576778 146.3367464 -82.9921875 143.0390625 C-78.25577033 139.44800936 -73.61143481 135.75033151 -69 132 C-70.53921096 127.78178263 -73.65616806 125.65842801 -77.125 123.0625 C-78.39427767 122.08990849 -79.66246337 121.11589063 -80.9296875 120.140625 C-81.59452148 119.63080078 -82.25935547 119.12097656 -82.94433594 118.59570312 C-86.42659557 115.89260943 -89.83699923 113.10218653 -93.25 110.3125 C-98.47957504 106.03939412 -103.73791197 101.81355856 -109.08203125 97.68359375 C-112.06236404 95.06745641 -113.81383057 93.07047424 -114.5 89.125 C-113.23595875 81.22474222 -104.92045123 76.56697909 -99 72 C-96.76759059 70.25412371 -94.54037826 68.50165258 -92.3125 66.75 C-91.72283447 66.28762939 -91.13316895 65.82525879 -90.52563477 65.34887695 C-85.52531725 61.42528239 -80.56204504 57.45665617 -75.60449219 53.47924805 C-71.44517236 50.145881 -67.26165882 46.84547871 -63.0625 43.5625 C-57.99484628 39.59800899 -52.98541669 35.56734931 -48 31.5 C-41.31440165 26.04674043 -34.56149868 20.68782649 -27.76171875 15.37792969 C-25.89045002 13.9143154 -24.02291423 12.44604415 -22.15625 10.9765625 C-21.52348145 10.47850098 -20.89071289 9.98043945 -20.23876953 9.46728516 C-19.03125059 8.51664475 -17.8238841 7.56581066 -16.61669922 6.61474609 C-15.08042928 5.40647952 -13.54037105 4.20303386 -12 3 C-11.37351562 2.401875 -10.74703125 1.80375 -10.1015625 1.1875 C-6.8166611 -0.66865247 -3.62019993 -0.6493514 0 0 Z " fill="#F7F8F9" transform="translate(205,70)"/>
<path d="M0 0 C3.86225539 1.67801873 6.98678695 4.20339947 10.25 6.8125 C10.8584375 7.29460937 11.466875 7.77671875 12.09375 8.2734375 C17.44371739 12.52513923 22.74143971 16.84118672 28.03613281 21.16137695 C32.88269061 25.11044567 37.78065854 28.98717497 42.70874023 32.83374023 C47.20663846 36.35375146 51.63985702 39.94856888 56.0625 43.5625 C61.834222 48.27680728 67.68437789 52.85560524 73.61328125 57.37109375 C78.42666376 61.0729143 83.10906255 64.94006399 87.796875 68.79882812 C88.44527344 69.33056641 89.09367188 69.86230469 89.76171875 70.41015625 C90.33881592 70.88590088 90.91591309 71.36164551 91.51049805 71.85180664 C93.01480587 73.08734953 93.01480587 73.08734953 95 74 C93.64484936 78.06545191 90.86259907 79.69614795 87.5625 82.1875 C86.27184521 83.18061254 84.98148181 84.17410389 83.69140625 85.16796875 C83.05734863 85.65313965 82.42329102 86.13831055 81.77001953 86.63818359 C79.4877442 88.39411901 77.24158897 90.19250839 75 92 C71.72828063 94.62696685 68.43777752 97.22765351 65.1328125 99.8125 C59.37367953 104.31742179 53.6651819 108.87739741 48 113.5 C41.77614516 118.57846139 35.49138625 123.57086749 29.1640625 128.51953125 C26.42730863 130.6607348 23.70955012 132.82441659 21 135 C14.70705956 140.05118965 8.35076505 145.02187869 2 150 C-1.24460895 148.52920916 -3.80554495 146.68575824 -6.5625 144.4375 C-7.44550781 143.72078125 -8.32851562 143.0040625 -9.23828125 142.265625 C-11.02786404 140.79750899 -12.81695766 139.32879641 -14.60546875 137.859375 C-20.19341585 133.27015995 -25.82894205 128.75441804 -31.52416992 124.29980469 C-35.89602371 120.87727111 -40.23455483 117.41533296 -44.5625 113.9375 C-49.1236006 110.27331068 -53.71893541 106.66778389 -58.375 103.125 C-64.31587855 98.5888612 -70.06354497 93.84201537 -75.8059082 89.05810547 C-80.78093943 84.93679802 -85.85561888 81.10017135 -91.19140625 77.453125 C-91.78824219 76.97359375 -92.38507813 76.4940625 -93 76 C-93 75.34 -93 74.68 -93 74 C-91.38538264 72.6636595 -89.70351159 71.40850099 -88 70.1875 C-82.80544899 66.40374632 -77.78379483 62.44725573 -72.8125 58.375 C-68.01846685 54.45489662 -63.21264902 50.56358374 -58.30859375 46.78125 C-48.64928153 39.32837965 -39.13701591 31.70283234 -29.6796875 23.99609375 C-23.94595701 19.32378772 -18.17524355 14.70036706 -12.3515625 10.140625 C-11.71492676 9.64191895 -11.07829102 9.14321289 -10.42236328 8.62939453 C-9.16399436 7.64462576 -7.90459293 6.6611746 -6.64404297 5.67919922 C-4.32436562 3.86530148 -2.08441238 2.08441238 0 0 Z " fill="#292A2C" transform="translate(200,84)"/>
<path d="M0 0 C3.18593382 0.35841755 5.18918075 1.65685434 7.6875 3.58984375 C8.38029053 4.12198486 9.07308105 4.65412598 9.78686523 5.20239258 C10.51719971 5.77497803 11.24753418 6.34756348 12 6.9375 C12.75676025 7.52362061 13.51352051 8.10974121 14.29321289 8.71362305 C19.72178895 12.94019423 25.03548 17.28507683 30.29296875 21.72265625 C34.46292751 25.23071679 38.70147119 28.65083951 43 32 C43.55532158 32.48810717 44.11064316 32.97621433 44.68279266 33.47911263 C49.80233035 37.74802382 53.39586178 38.8743738 59.98632812 38.77294922 C61.27555176 38.78889381 61.27555176 38.78889381 62.59082031 38.80516052 C65.40490488 38.83305309 68.21709237 38.81919473 71.03125 38.8046875 C72.9928144 38.81594581 74.95436533 38.82983001 76.91589355 38.84622192 C82.05835306 38.88218489 87.20021712 38.88264291 92.34277344 38.87554932 C97.59841491 38.8746349 102.85383504 38.90751637 108.109375 38.9375 C118.4063124 38.99129178 128.70293757 39.00755253 139 39 C135.9057598 42.99495796 132.63571316 46.0810458 128.625 49.125 C127.36450345 50.09885495 126.10408902 51.07281619 124.84375 52.046875 C124.20308594 52.53865234 123.56242188 53.03042969 122.90234375 53.53710938 C119.96216578 55.79808812 117.04218859 58.08447603 114.125 60.375 C113.5563623 60.82093506 112.98772461 61.26687012 112.40185547 61.72631836 C105.79042724 66.9265353 99.28184455 72.25319061 92.76123047 77.56640625 C86.26676648 82.85272348 79.71362805 88.05854769 73.04418945 93.12280273 C70.13190171 95.33672482 67.26944278 97.58974874 64.45703125 99.9296875 C63.87800049 100.40164551 63.29896973 100.87360352 62.70239258 101.35986328 C61.58998406 102.26823186 60.48886752 103.19065567 59.40112305 104.12841797 C57.875 105.359375 57.875 105.359375 55 107 C50.49445682 106.23384679 47.39324491 103.02003356 44.0625 100.0625 C39.50317902 96.10947865 34.88733458 92.26878302 30.125 88.5625 C25.22217578 84.74205537 20.34698554 80.89110966 15.5 77 C10.7106882 73.1572047 5.89997232 69.34446131 1.0625 65.5625 C-4.80930479 60.96957781 -10.59778086 56.2792022 -16.375 51.56811523 C-21.19651546 47.6405891 -26.06835494 43.78848596 -31 40 C-32.68819901 38.68839923 -34.37570324 37.37590367 -36.0625 36.0625 C-36.81660156 35.47597656 -37.57070312 34.88945312 -38.34765625 34.28515625 C-38.89292969 33.86105469 -39.43820313 33.43695313 -40 33 C-36.15193776 29.00506515 -32.06779624 25.47730919 -27.75 22 C-26.72011963 21.16601685 -26.72011963 21.16601685 -25.66943359 20.31518555 C-19.66617151 15.48016613 -13.55954824 10.78465323 -7.40917969 6.13867188 C-6.73016602 5.62498047 -6.05115234 5.11128906 -5.3515625 4.58203125 C-4.75166504 4.13061768 -4.15176758 3.6792041 -3.53369141 3.21411133 C-1.86091714 1.93793391 -1.86091714 1.93793391 0 0 Z " fill="#2A2B2D" transform="translate(147,210)"/>
<path d="M0 0 C2.35714706 0.80279646 3.88079079 1.82344007 5.84521484 3.34790039 C6.54372559 3.88560059 7.24223633 4.42330078 7.96191406 4.97729492 C8.69555176 5.55334473 9.42918945 6.12939453 10.18505859 6.72290039 C10.93932129 7.30797363 11.69358398 7.89304688 12.47070312 8.49584961 C27.93511504 20.53545684 27.93511504 20.53545684 33.12255859 25.72290039 C11.34255859 25.72290039 -10.43744141 25.72290039 -32.87744141 25.72290039 C-29.90546635 22.75092534 -27.1891375 20.04523232 -23.98681641 17.41821289 C-23.28129639 16.8375708 -22.57577637 16.25692871 -21.84887695 15.65869141 C-21.11580322 15.06113037 -20.38272949 14.46356934 -19.62744141 13.84790039 C-18.49399292 12.92352173 -18.49399292 12.92352173 -17.33764648 11.98046875 C-15.8508186 10.76979118 -14.36297989 9.5603537 -12.87402344 8.35229492 C-11.20481066 6.9900638 -9.55263112 5.6069958 -7.90478516 4.21899414 C-6.7465625 3.26186523 -6.7465625 3.26186523 -5.56494141 2.28540039 C-4.92943359 1.75043945 -4.29392578 1.21547852 -3.63916016 0.66430664 C-1.87744141 -0.27709961 -1.87744141 -0.27709961 0 0 Z " fill="#2C2D2F" transform="translate(253.87744140625,210.277099609375)"/>
<path d="M0 0 C3.03852705 1.40976705 5.5939595 3.08870228 8.25 5.125 C8.95640625 5.66382812 9.6628125 6.20265625 10.390625 6.7578125 C10.92171875 7.16773437 11.4528125 7.57765625 12 8 C11.67 8.66 11.34 9.32 11 10 C6.25 8.125 6.25 8.125 4 7 C3.67 7.66 3.34 8.32 3 9 C2.401875 8.835 1.80375 8.67 1.1875 8.5 C-1.11344336 7.8885876 -1.11344336 7.8885876 -4 8 C-4 7.34 -4 6.68 -4 6 C-4.66 5.67 -5.32 5.34 -6 5 C-4.02 3.35 -2.04 1.7 0 0 Z " fill="#2E2F31" transform="translate(200,84)"/>
<path d="M0 0 C3 2 6 4 9 6 C7.76210371 9.71368887 6.14775123 10.77354181 3 13 C2.34 13 1.68 13 1 13 C1.33 10.69 1.66 8.38 2 6 C1.01 5.67 0.02 5.34 -1 5 C-0.67 3.35 -0.34 1.7 0 0 Z M1 4 C1.66 4.66 2.32 5.32 3 6 C3 5.34 3 4.68 3 4 C2.34 4 1.68 4 1 4 Z " fill="#313234" transform="translate(286,152)"/>
<path d="M0 0 C0.99 0.495 0.99 0.495 2 1 C1.01 1.495 1.01 1.495 0 2 C0 1.34 0 0.68 0 0 Z M-2.875 1.875 C-1.92625 1.91625 -0.9775 1.9575 0 2 C0 2.99 0 3.98 0 5 C-1.53125 6.38671875 -1.53125 6.38671875 -3.5 7.6875 C-4.47453125 8.34298828 -4.47453125 8.34298828 -5.46875 9.01171875 C-5.9740625 9.33785156 -6.479375 9.66398437 -7 10 C-7.99 9.34 -8.98 8.68 -10 8 C-7.22282609 2.04891304 -7.22282609 2.04891304 -2.875 1.875 Z " fill="#303133" transform="translate(139,112)"/>
<path d="M0 0 C0.7425 0.66 1.485 1.32 2.25 2 C4.97242945 4.39211447 4.97242945 4.39211447 9 4 C9 3.34 9 2.68 9 2 C9.66 2.33 10.32 2.66 11 3 C10.79375 3.598125 10.5875 4.19625 10.375 4.8125 C9.69328085 7.28450846 9.69328085 7.28450846 12 10 C11.01 10.33 10.02 10.66 9 11 C6.51953125 9.34765625 6.51953125 9.34765625 3.8125 7.0625 C2.91144531 6.31097656 2.01039063 5.55945313 1.08203125 4.78515625 C0.39496094 4.19605469 -0.29210937 3.60695312 -1 3 C-0.67 2.01 -0.34 1.02 0 0 Z " fill="#313234" transform="translate(266,199)"/>
<path d="M0 0 C3.43950364 0.61198376 5.51564485 1.92058847 8.25 4.0625 C8.95640625 4.61035156 9.6628125 5.15820312 10.390625 5.72265625 C11.18726563 6.35494141 11.18726563 6.35494141 12 7 C9.8614515 9.1385485 8.86724686 9.42655063 6 10 C5.34 9.01 4.68 8.02 4 7 C3.01 6.34 2.02 5.68 1 5 C1 4.01 1 3.02 1 2 C0.67 1.34 0.34 0.68 0 0 Z " fill="#313234" transform="translate(155,216)"/>
<path d="M0 0 C1.65 0.33 3.3 0.66 5 1 C5 2.32 5 3.64 5 5 C2 7.25 2 7.25 -1 9 C-2.25541557 5.23375329 -1.37061958 3.62811066 0 0 Z " fill="#303133" transform="translate(131,198)"/>
<path d="M0 0 C5.61702128 0.89361702 5.61702128 0.89361702 8.25 1.625 C10.0976086 2.2114853 10.0976086 2.2114853 12 1 C12.33 2.32 12.66 3.64 13 5 C11.68 5.99 10.36 6.98 9 8 C7.49712782 6.85793642 5.99776716 5.71125043 4.5 4.5625 C3.6646875 3.92441406 2.829375 3.28632813 1.96875 2.62890625 C1.3190625 2.09136719 0.669375 1.55382812 0 1 C0 0.67 0 0.34 0 0 Z " fill="#2D2E30" transform="translate(131,178)"/>
<path d="M0 0 C0.66 0.33 1.32 0.66 2 1 C1.67 1.99 1.34 2.98 1 4 C0.34 4 -0.32 4 -1 4 C-1 5.32 -1 6.64 -1 8 C-5.455 8.495 -5.455 8.495 -10 9 C-6.83047153 5.73991357 -3.60062011 2.77762123 0 0 Z " fill="#343537" transform="translate(277,190)"/>
<path d="M0 0 C0.66 1.32 1.32 2.64 2 4 C1.401875 4.0825 0.80375 4.165 0.1875 4.25 C-3.22045876 5.418443 -4.44181344 7.88362688 -6 11 C-7.65 11 -9.3 11 -11 11 C-9.52202738 7.32943063 -7.52384523 5.58914217 -4.375 3.25 C-3.55773437 2.63640625 -2.74046875 2.0228125 -1.8984375 1.390625 C-0.95871094 0.70226562 -0.95871094 0.70226562 0 0 Z " fill="#323335" transform="translate(291,179)"/>
<path d="M0 0 C0.99 0.99 1.98 1.98 3 3 C0.03 5.475 0.03 5.475 -3 8 C-4.32 7.34 -5.64 6.68 -7 6 C-7 5.01 -7 4.02 -7 3 C-4.03 3.495 -4.03 3.495 -1 4 C-0.67 2.68 -0.34 1.36 0 0 Z " fill="#343537" transform="translate(205,226)"/>
<path d="M0 0 C3.81684226 1.55500981 6.19195732 4.03595495 9 7 C8.01 7.66 7.02 8.32 6 9 C3.66666667 6.66666667 1.33333333 4.33333333 -1 2 C-0.67 1.34 -0.34 0.68 0 0 Z " fill="#333436" transform="translate(99,254)"/>
<path d="M0 0 C2 2 2 2 3 5 C2.34 5 1.68 5 1 5 C0.67 5.99 0.34 6.98 0 8 C-1.70884005 6.37660195 -3.37446717 4.70680947 -5 3 C-5 2.34 -5 1.68 -5 1 C-2.625 0.375 -2.625 0.375 0 0 Z " fill="#313234" transform="translate(149,185)"/>
<path d="M0 0 C0 0.66 0 1.32 0 2 C-0.66 2.66 -1.32 3.32 -2 4 C-2.495 4.53625 -2.99 5.0725 -3.5 5.625 C-5 7 -5 7 -7 7 C-7 7.66 -7 8.32 -7 9 C-7.99 9.33 -8.98 9.66 -10 10 C-10.66 9.34 -11.32 8.68 -12 8 C-10.37982158 6.66081194 -8.75370657 5.3288031 -7.125 4 C-6.22007813 3.2575 -5.31515625 2.515 -4.3828125 1.75 C-2 0 -2 0 0 0 Z " fill="#343537" transform="translate(122,148)"/>
<path d="M0 0 C1 1 2 2 3 3 C3.515625 3.495 4.03125 3.99 4.5625 4.5 C6 6 6 6 8 9 C4.39426104 9 3.58663434 8.18292538 0.8125 6 C0.09707031 5.443125 -0.61835938 4.88625 -1.35546875 4.3125 C-1.89816406 3.879375 -2.44085938 3.44625 -3 3 C-2.01 2.01 -1.02 1.02 0 0 Z " fill="#38393B" transform="translate(266,114)"/>
<path d="M0 0 C2.75 0.25 2.75 0.25 5 1 C5 1.99 5 2.98 5 4 C4.01 4 3.02 4 2 4 C2 4.66 2 5.32 2 6 C0.02 5.34 -1.96 4.68 -4 4 C-2.3125 1.9375 -2.3125 1.9375 0 0 Z " fill="#2F3032" transform="translate(154,121)"/>
<path d="M0 0 C2.31 1.98 4.62 3.96 7 6 C5 8 5 8 2.375 8.125 C1.59125 8.08375 0.8075 8.0425 0 8 C-0.33 7.34 -0.66 6.68 -1 6 C-0.01 6 0.98 6 2 6 C1.01 5.01 0.02 4.02 -1 3 C-0.67 2.01 -0.34 1.02 0 0 Z " fill="#333436" transform="translate(92,247)"/>
<path d="M0 0 C1 3 1 3 0 6 C-0.78375 6.12375 -1.5675 6.2475 -2.375 6.375 C-5.14057822 6.79117993 -5.14057822 6.79117993 -7 9 C-7.99 8.67 -8.98 8.34 -10 8 C-6.7 5.36 -3.4 2.72 0 0 Z " fill="#343537" transform="translate(132,222)"/>
<path d="M0 0 C0 0.99 0 1.98 0 3 C-3 5.1875 -3 5.1875 -6 7 C-6.66 5.35 -7.32 3.7 -8 2 C-2.25 0 -2.25 0 0 0 Z " fill="#303133" transform="translate(177,84)"/>
<path d="M0 0 C0 3 0 3 -1 6 C-3.60242414 7.64820195 -4.86248779 8 -8 8 C-6.88333826 4.65001479 -6.25305075 4.20659778 -3.4375 2.3125 C-2.79683594 1.87550781 -2.15617187 1.43851562 -1.49609375 0.98828125 C-1.00238281 0.66214844 -0.50867188 0.33601563 0 0 Z " fill="#303133" transform="translate(272,278)"/>
<path d="M0 0 C0.66 0.33 1.32 0.66 2 1 C1.34 1.66 0.68 2.32 0 3 C0.33 3.66 0.66 4.32 1 5 C0.67 5.66 0.34 6.32 0 7 C-2.31 6.67 -4.62 6.34 -7 6 C-2.25 1.125 -2.25 1.125 0 0 Z " fill="#313234" transform="translate(235,224)"/>
<path d="M0 0 C1.65 0.33 3.3 0.66 5 1 C5 1.66 5 2.32 5 3 C0.52941176 7 0.52941176 7 -2 7 C-1.125 2.25 -1.125 2.25 0 0 Z " fill="#2F3032" transform="translate(123,123)"/>
<path d="M0 0 C0.99 0.33 1.98 0.66 3 1 C3 1.66 3 2.32 3 3 C3.66 3 4.32 3 5 3 C4.67 4.32 4.34 5.64 4 7 C1.69 5.35 -0.62 3.7 -3 2 C-2.01 1.34 -1.02 0.68 0 0 Z " fill="#333436" transform="translate(217,76)"/>
<path d="M0 0 C0.763125 0.639375 1.52625 1.27875 2.3125 1.9375 C4.88246713 4.14232781 4.88246713 4.14232781 8 5 C7.67 5.99 7.34 6.98 7 8 C4.04590299 6.62845496 1.55991624 5.01136276 -1 3 C-0.67 2.01 -0.34 1.02 0 0 Z " fill="#393A3C" transform="translate(266,199)"/>
<path d="M0 0 C-0.33 1.98 -0.66 3.96 -1 6 C-3.97 5.505 -3.97 5.505 -7 5 C-2.25 0 -2.25 0 0 0 Z " fill="#323335" transform="translate(262,287)"/>
<path d="M0 0 C1 2 1 2 0.5 4 C-1.75069493 7.00092657 -4.44640878 7.21031306 -8 8 C-5.33333333 5.33333333 -2.66666667 2.66666667 0 0 Z " fill="#E7E8EA" transform="translate(131,122)"/>
<path d="M0 0 C1.65 0.99 3.3 1.98 5 3 C4.01 3.99 3.02 4.98 2 6 C1.01 5.01 0.02 4.02 -1 3 C-0.67 2.01 -0.34 1.02 0 0 Z " fill="#EFF0F1" transform="translate(161,286)"/>
<path d="M0 0 C0.99 0.66 1.98 1.32 3 2 C2.67 2.99 2.34 3.98 2 5 C0.68 5 -0.64 5 -2 5 C-2.33 4.01 -2.66 3.02 -3 2 C-2.01 1.34 -1.02 0.68 0 0 Z " fill="#2F3032" transform="translate(237,306)"/>
<path d="M0 0 C0.66 0.33 1.32 0.66 2 1 C0.68 2.65 -0.64 4.3 -2 6 C-1.67 6.66 -1.34 7.32 -1 8 C-1.99 8 -2.98 8 -4 8 C-4 7.34 -4 6.68 -4 6 C-4.66 5.67 -5.32 5.34 -6 5 C-4.02 3.35 -2.04 1.7 0 0 Z " fill="#424345" transform="translate(200,84)"/>
<path d="M0 0 C5.75 0.75 5.75 0.75 8 3 C7.01 4.485 7.01 4.485 6 6 C3.97945196 4.35830472 1.97956942 2.69088222 0 1 C0 0.67 0 0.34 0 0 Z " fill="#3F4042" transform="translate(131,178)"/>
<path d="M0 0 C2.38564077 0.57584432 4.66682784 1.22227595 7 2 C6.67 3.32 6.34 4.64 6 6 C3.97945196 4.35830472 1.97956942 2.69088222 0 1 C0 0.67 0 0.34 0 0 Z " fill="#313234" transform="translate(160,284)"/>
</svg>
